<?xml version="1.0" standalone="no"?>
<!DOCTYPE svg PUBLIC "-//W3C//DTD SVG 1.1//EN" "http://www.w3.org/Graphics/SVG/1.1/DTD/svg11.dtd" >
<svg xmlns="http://www.w3.org/2000/svg" xmlns:xlink="http://www.w3.org/1999/xlink" version="1.1">
<metadata>
Created by FontForge 20170731 at Mon Nov 23 18:45:38 2020
 By Aleksey,,,
Copyright (c) 2016 by Kimera Type Foundry. All rights reserved.
</metadata>
<defs>
<font id="TelcelNova-Media" horiz-adv-x="1351" >
  <font-face 
    font-family="TelcelNova Media"
    font-weight="400"
    font-stretch="normal"
    units-per-em="2048"
    panose-1="0 0 0 0 0 0 0 0 0 0"
    ascent="1556"
    descent="-492"
    x-height="983"
    cap-height="1339"
    bbox="-174 -434 2181 1960"
    underline-thickness="102"
    underline-position="-307"
    unicode-range="U+000D-FB02"
  />
<missing-glyph horiz-adv-x="1024" 
d="M897 0h-768v1556h768v-1556zM256 1430v-1301h512v1301h-512z" />
    <glyph glyph-name="fi" unicode="fi" horiz-adv-x="1028" 
d="M997 109q0 -56 -41 -92.5t-120 -36.5q-98 0 -144.5 56t-46.5 173v577h-307v-1183q-43 -29 -102 -29q-134 0 -134 150v1423q0 158 95 236.5t307 78.5q89 0 148 -10.5t89.5 -30.5t42 -43.5t11.5 -56.5q0 -22 -2.5 -39t-4.5 -23l-2 -6q-77 9 -200 9q-106 0 -159 -15.5
t-71 -48t-18 -96.5v-119h543v-741q0 -95 75 -95l33 3q8 -14 8 -41z" />
    <glyph glyph-name="fl" unicode="fl" horiz-adv-x="1089" 
d="M1069 109q0 -56 -41.5 -92.5t-120.5 -36.5q-98 0 -144 56t-46 173v909q0 98 -43.5 141.5t-145.5 43.5t-146 -43t-44 -138v-139h250q16 -25 16 -76q0 -57 -32.5 -89t-100.5 -32h-133v-1183q-43 -29 -102 -29q-134 0 -134 150v1419q0 170 108 265t320 95q215 0 318.5 -94
t103.5 -266v-901q0 -95 76 -95l33 3q8 -14 8 -41z" />
    <glyph glyph-name=".notdef" horiz-adv-x="1024" 
d="M897 0h-768v1556h768v-1556zM256 1430v-1301h512v1301h-512z" />
    <glyph glyph-name=".null" horiz-adv-x="0" 
 />
    <glyph glyph-name="nonmarkingreturn" horiz-adv-x="682" 
 />
    <glyph glyph-name="CR" unicode="&#xd;" horiz-adv-x="479" 
 />
    <glyph glyph-name="space" unicode=" " horiz-adv-x="479" 
 />
    <glyph glyph-name="exclam" unicode="!" horiz-adv-x="604" 
d="M440 1401l-20 -832q-1 -80 -35.5 -114.5t-97.5 -34.5q-24 0 -44.5 7t-28.5 15l-9 7l-21 831q-3 150 133 150q30 0 61 -7t46 -15zM440 248v-115q0 -78 -45 -113.5t-119 -35.5q-29 0 -57 7t-41 14l-14 7v115q0 78 45 113.5t119 35.5q29 0 57 -7t41 -14z" />
    <glyph glyph-name="quotedbl" unicode="&#x22;" horiz-adv-x="911" 
d="M809 1436l-61 -324q-15 -80 -55 -114.5t-109 -34.5q-15 0 -28 2.5t-18 4.5l-6 3v342q0 78 45 113.5t119 35.5q29 0 57.5 -7t42.5 -14zM451 1436l-62 -324q-15 -80 -55 -114.5t-109 -34.5q-15 0 -27.5 2.5t-17.5 4.5l-6 3v342q0 78 45 113.5t119 35.5q29 0 57.5 -7
t42.5 -14z" />
    <glyph glyph-name="numbersign" unicode="#" horiz-adv-x="1769" 
d="M1585 1343l-203 -442h185q16 -27 16 -78q0 -57 -33 -92t-100 -35h-164l-96 -204h377q16 -27 16 -78q0 -57 -33 -92t-100 -35h-356l-201 -432q-46 -97 -123 -97q-32 0 -58 9t-40.5 21.5t-25 25t-14.5 21.5l-3 9l207 443h-187l-200 -432q-46 -97 -123 -97q-32 0 -58 9
t-41 21.5t-25.5 25t-13.5 21.5l-4 9l207 443h-184q-17 27 -17 78q0 57 33.5 92t100.5 35h161l97 204h-375q-17 27 -17 78q0 57 33.5 92t100.5 35h354l199 432q46 97 122 97q32 0 58 -9t41 -22t25.5 -25.5t14.5 -21.5l3 -9l-203 -442h184l199 432q46 97 123 97q32 0 58 -9
t40.5 -22t25 -25.5t14.5 -21.5zM930 492l96 204h-184l-97 -204h185z" />
    <glyph glyph-name="dollar" unicode="$" horiz-adv-x="1222" 
d="M1090 375q0 -328 -340 -387v-295q-44 -29 -103 -29q-133 0 -133 150v163q-172 6 -243.5 41.5t-71.5 112.5q0 22 2.5 39t4.5 23l3 6q129 -29 342 -29q170 0 238.5 41.5t68.5 124.5q0 54 -20.5 84t-82 49t-180.5 27q-223 15 -332.5 105.5t-109.5 260.5q0 311 381 352v273
q43 29 102 29q134 0 134 -150v-147q169 -9 239 -51.5t70 -120.5q0 -24 -5.5 -45.5t-10.5 -31.5l-5 -9q-152 38 -340 38q-127 0 -198 -16t-98 -47.5t-27 -85.5q0 -77 63.5 -117.5t223.5 -50.5q238 -17 333 -87t95 -220z" />
    <glyph glyph-name="percent" unicode="%" horiz-adv-x="1650" 
d="M1466 311q0 -144 -77.5 -237.5t-206.5 -93.5q-138 0 -212.5 92t-74.5 239q0 146 77 220.5t208 74.5q286 0 286 -295zM1411 1348l-967 -1520q-47 -70 -106 -70q-40 0 -77 26t-44 64l967 1520q47 70 106 70q40 0 77 -26t44 -64zM756 926q0 -144 -78 -238t-207 -94
q-138 0 -212.5 92.5t-74.5 239.5q0 146 77 220.5t208 74.5q287 0 287 -295zM1262 303q0 107 -82 107q-80 0 -80 -107q0 -72 21 -102.5t61 -30.5t60 30.5t20 102.5zM551 918q0 106 -82 106q-80 0 -80 -106q0 -134 82 -134q40 0 60 31t20 103z" />
    <glyph glyph-name="ampersand" unicode="&#x26;" horiz-adv-x="1511" 
d="M1090 469l370 -442q-5 -5 -15 -13t-45.5 -21t-76.5 -13q-72 0 -114 24t-95 86l-160 191h-4l-51 -74q-82 -119 -172.5 -173t-212.5 -54q-180 0 -290.5 121t-110.5 315q0 189 87 288t216 99q53 0 114 -23l2 4l-34 45q-57 74 -86 133.5t-29 133.5q0 137 90.5 196.5
t286.5 59.5q126 0 195.5 -17t95.5 -50t26 -91q0 -24 -5 -45.5t-10 -30.5l-5 -10q-101 22 -248 22q-102 0 -143 -17.5t-41 -53.5q0 -31 13.5 -57t57.5 -78l246 -295h4l254 393q17 2 29 2q62 0 100.5 -36.5t38.5 -88.5q0 -47 -35 -98zM758 367l53 79l-106 127q-35 42 -75.5 62
t-99.5 20q-84 0 -129 -60.5t-45 -176.5q0 -110 48.5 -178t115.5 -68q58 0 109.5 39t128.5 156z" />
    <glyph glyph-name="quotesingle" unicode="'" horiz-adv-x="552" 
d="M451 1436l-62 -324q-15 -80 -55 -114.5t-109 -34.5q-15 0 -27.5 2.5t-17.5 4.5l-6 3v342q0 78 45 113.5t119 35.5q29 0 57.5 -7t42.5 -14z" />
    <glyph glyph-name="parenleft" unicode="(" horiz-adv-x="1007" 
d="M879 -299q0 -131 -148 -131q-77 0 -143.5 33t-125 108.5t-100.5 189.5t-66 285.5t-24 386.5t24 386.5t66 286t100.5 190t125 108.5t143.5 33q148 0 148 -131q0 -24 -5.5 -47t-10.5 -34l-5 -11q-22 2 -57 2q-58 0 -105.5 -37.5t-88 -122.5t-63 -243.5t-22.5 -379.5
q0 -179 15.5 -317t41 -224.5t62 -141.5t75.5 -77t85 -22l57 2q21 -39 21 -92z" />
    <glyph glyph-name="parenright" unicode=")" horiz-adv-x="1007" 
d="M735 573q0 -215 -24 -386.5t-66 -285.5t-100.5 -189.5t-125 -108.5t-143.5 -33q-147 0 -147 131q0 24 5.5 47t10.5 34l5 11q22 -2 57 -2q46 0 85 22t75.5 77t62 142t40.5 224.5t15 316.5t-15 317t-40.5 224.5t-62 142t-75.5 77.5t-85 22l-57 -2q-21 39 -21 92
q0 131 147 131q77 0 143.5 -33t125 -108.5t100.5 -190t66 -286t24 -386.5z" />
    <glyph glyph-name="asterisk" unicode="*" horiz-adv-x="942" 
d="M860 1053q0 -57 -52 -85t-114 -28q-77 0 -153 49q0 -59 22.5 -121.5t59.5 -101.5q-1 -3 -3.5 -8t-12.5 -18t-22 -22.5t-32.5 -17.5t-44.5 -8q-63 0 -102 69.5t-39 139.5q0 28 12 78q-54 -18 -108.5 -60t-80.5 -88q-4 0 -11.5 1.5t-26 9t-33 18t-26 32.5t-11.5 50
q0 52 40 97t94 68.5t103 25.5q-28 41 -88.5 81.5t-107.5 47.5q-2 10 -2 20q0 50 28.5 87.5t77.5 37.5q70 0 130.5 -52t86.5 -122q78 120 64 229q28 13 67 13q111 0 111 -123q0 -61 -28 -115.5t-74 -91.5q50 -15 100 -15q36 0 70 6t50 12l15 7q5 -4 11.5 -12t18 -34.5
t11.5 -55.5z" />
    <glyph glyph-name="plus" unicode="+" horiz-adv-x="1597" 
d="M1413 618q0 -57 -33 -91.5t-100 -34.5h-379v-492q-27 -16 -78 -16q-57 0 -92 33t-35 100v375h-495q-17 26 -17 77q0 57 33 92t100 35h379v484q27 16 78 16q57 0 92 -33t35 -100v-367h496q16 -27 16 -78z" />
    <glyph glyph-name="comma" unicode="," horiz-adv-x="616" 
d="M467 102q0 -132 -99 -235t-212 -103q-32 0 -56 8.5t-35.5 20.5t-18.5 24t-8 21l-1 8q4 1 11.5 4t29 17t41.5 33.5t45.5 57t44.5 83.5q22 54 31 106t8 77l-2 26q29 16 76 16q145 0 145 -164z" />
    <glyph glyph-name="hyphen" unicode="-" horiz-adv-x="880" 
d="M748 618q0 -57 -33.5 -91.5t-100.5 -34.5h-464q-17 26 -17 77q0 57 33 92t100 35h465q17 -27 17 -78z" />
    <glyph glyph-name="period" unicode="." horiz-adv-x="555" 
d="M416 248v-115q0 -78 -45 -113.5t-119 -35.5q-29 0 -57.5 7t-42.5 14l-13 7v115q0 78 45 113.5t119 35.5q29 0 57.5 -7t41.5 -14z" />
    <glyph glyph-name="slash" unicode="/" horiz-adv-x="1267" 
d="M1190 1487l-848 -1817q-45 -96 -123 -96q-32 0 -58 9t-40.5 21.5t-25 25t-13.5 21.5l-4 9l848 1817q45 96 123 96q32 0 58 -9t40.5 -21.5t25 -25t13.5 -21.5z" />
    <glyph glyph-name="zero" unicode="0" horiz-adv-x="1236" 
d="M1155 631q0 -302 -151.5 -476.5t-385.5 -174.5q-247 0 -391.5 172t-144.5 479q0 306 131.5 448t402.5 142q276 0 407.5 -141.5t131.5 -448.5zM911 629q0 197 -79.5 292t-215.5 95q-131 0 -210.5 -95.5t-79.5 -291.5q0 -219 77.5 -338t214.5 -119t215 119t78 338z" />
    <glyph glyph-name="one" unicode="1" horiz-adv-x="743" 
d="M528 1180v-1168q-43 -28 -102 -28q-133 0 -133 149v850h-205q-16 25 -16 76q0 57 32.5 89t100.5 32h323z" />
    <glyph glyph-name="two" unicode="2" horiz-adv-x="1153" 
d="M1051 76q0 -23 -4.5 -42t-8.5 -26l-4 -8h-1014l633 670q103 111 103 192q0 46 -26 74t-95 43.5t-189 15.5q-88 0 -173 -13.5t-126 -27.5l-41 -14q-14 29 -14 84q0 62 31.5 103.5t117 67.5t226.5 26q288 0 411 -72.5t123 -253.5q0 -98 -40 -181.5t-142 -185.5l-327 -331
h426q68 0 100.5 -32t32.5 -89z" />
    <glyph glyph-name="three" unicode="3" horiz-adv-x="1138" 
d="M985 221q0 -203 -130 -322.5t-357 -119.5q-168 0 -256 36t-88 119q0 22 2.5 39t5.5 23l2 6q103 -29 289 -29q150 0 223.5 62t73.5 172q0 116 -69 156t-228 40q-69 0 -102.5 33t-33.5 88q0 23 4.5 42t8.5 26l4 8q52 -2 72 -2q161 3 244 64.5t83 166.5q0 86 -68.5 126
t-236.5 40q-88 0 -171 -13.5t-122 -27.5l-39 -14q-14 29 -14 84q0 47 16.5 81t56 61t113 41t181.5 14q289 0 409.5 -74t120.5 -260q0 -139 -78 -231.5t-215 -118.5v-5q156 -12 227.5 -86.5t71.5 -224.5z" />
    <glyph glyph-name="four" unicode="4" horiz-adv-x="1304" 
d="M1294 317q0 -120 -133 -120h-170v-308q-43 -28 -102 -28q-133 0 -133 149v187h-766l766 1114q43 28 102 28q133 0 133 -149v-797h287q16 -25 16 -76zM375 393h381v555z" />
    <glyph glyph-name="five" unicode="5" horiz-adv-x="1107" 
d="M1006 221q0 -202 -130.5 -322t-357.5 -120q-168 0 -256 36t-88 119q0 22 2.5 39t5.5 23l2 6q103 -29 289 -29q150 0 223.5 62t73.5 172q0 116 -69 156t-228 40q-152 0 -246 95t-94 247v435h834q16 -25 16 -76q0 -57 -32.5 -89t-100.5 -32h-481v-201q0 -84 39 -121.5
t129 -37.5q179 0 282.5 -44.5t145 -130t41.5 -227.5z" />
    <glyph glyph-name="six" unicode="6" horiz-adv-x="1200" 
d="M1118 530q0 -247 -145.5 -398.5t-368.5 -151.5q-236 0 -374 146.5t-138 385.5q0 144 51 277.5t164 291.5l277 383q16 2 28 2q62 0 101 -36.5t39 -88.5q0 -57 -35 -98l-275 -328l4 -4q5 5 14.5 12.5t39.5 27t61.5 34.5t78.5 27t93 12q171 0 278 -124.5t107 -369.5z
M874 528q0 301 -253 301q-121 0 -203 -86t-82 -233q0 -92 22.5 -160t62 -105.5t85.5 -55t100 -17.5q53 0 98.5 18.5t85 57.5t62 111t22.5 169z" />
    <glyph glyph-name="seven" unicode="7" horiz-adv-x="1056" 
d="M16 1180h1031l-703 -1418q-16 -4 -39 -4q-62 0 -100.5 35.5t-38.5 93.5q0 36 29 99l501 997h-563q-68 0 -100.5 32t-32.5 89q0 23 4 42t8 26z" />
    <glyph glyph-name="eight" unicode="8" horiz-adv-x="1183" 
d="M1081 1063q0 -124 -79 -218.5t-201 -117.5v-4q124 -14 199 -98.5t75 -221.5q0 -185 -133 -304t-350 -119q-222 0 -352.5 118t-130.5 305q0 136 75.5 221t198.5 99v4q-121 23 -201 117.5t-80 218.5q0 159 122 258.5t368 99.5q244 0 366.5 -99.5t122.5 -258.5zM836 1010
q0 104 -54 155.5t-190 51.5q-130 0 -187 -52t-57 -155q0 -85 70 -149t174 -64q102 0 173 64.5t71 148.5zM840 401q0 109 -57.5 160t-190.5 51q-129 0 -188.5 -51.5t-59.5 -159.5q0 -106 66 -167.5t182 -61.5t182 61.5t66 167.5z" />
    <glyph glyph-name="nine" unicode="9" horiz-adv-x="1202" 
d="M1120 705q0 -164 -49.5 -295t-165.5 -291l-276 -383q-17 -2 -29 -2q-62 0 -100.5 36.5t-38.5 88.5q0 57 35 98l274 328l-4 4q-4 -5 -11.5 -12t-33 -26.5t-53 -34t-71 -26.5t-87.5 -12q-83 0 -158 33.5t-133 95.5t-92.5 161t-34.5 220q0 129 40 232t111 168t165.5 99
t205.5 34q240 0 373 -138.5t133 -377.5zM877 690q0 92 -22 158t-60.5 101.5t-83.5 51t-99 15.5q-276 0 -276 -326q0 -150 67.5 -234.5t188.5 -84.5t203 87t82 232z" />
    <glyph glyph-name="colon" unicode=":" horiz-adv-x="555" 
d="M416 797v-115q0 -78 -45 -114t-119 -36q-29 0 -57.5 7t-42.5 15l-13 7v115q0 78 45 113.5t119 35.5q29 0 57.5 -7t41.5 -14zM416 248v-115q0 -78 -45 -113.5t-119 -35.5q-29 0 -57.5 7t-42.5 14l-13 7v115q0 78 45 113.5t119 35.5q29 0 57.5 -7t41.5 -14z" />
    <glyph glyph-name="semicolon" unicode=";" horiz-adv-x="616" 
d="M457 797v-115q0 -78 -45 -114t-119 -36q-29 0 -57.5 7t-41.5 15l-14 7v115q0 78 45 113.5t119 35.5q29 0 57.5 -7t42.5 -14zM467 102q0 -132 -99 -235t-212 -103q-32 0 -56 8.5t-35.5 20.5t-18.5 24t-8 21l-1 8q4 1 11.5 4t29 17t41.5 33.5t45.5 57t44.5 83.5
q22 54 31 106t8 77l-2 26q29 16 76 16q145 0 145 -164z" />
    <glyph glyph-name="less" unicode="&#x3c;" horiz-adv-x="1464" 
d="M563 578l615 -453l-2.5 -15t-10 -32.5t-20.5 -41.5t-36.5 -33t-55.5 -15q-39 0 -80 28l-748 568l850 612q4 -1 9.5 -3.5t21 -12t27 -23t21 -37.5t9.5 -53q0 -64 -67 -111z" />
    <glyph glyph-name="equal" unicode="=" horiz-adv-x="1597" 
d="M1311 823q0 -57 -33 -92t-100 -35h-875q-16 27 -16 78q0 57 33 92t100 35h874q17 -27 17 -78zM1311 414q0 -57 -33 -92t-100 -35h-875q-16 27 -16 78q0 57 33 92t100 35h874q17 -27 17 -78z" />
    <glyph glyph-name="greater" unicode="&#x3e;" horiz-adv-x="1464" 
d="M492 1167l747 -567l-850 -612q-4 1 -9.5 3.5t-21 12t-27 23t-21 37.5t-9.5 53q0 62 68 110l532 379l-614 453l2.5 15t10 32.5t20.5 41.5t36.5 33t55.5 15q38 0 80 -29z" />
    <glyph glyph-name="question" unicode="?" horiz-adv-x="776" 
d="M797 1075q0 -261 -250 -377q-61 -27 -76.5 -50t-15.5 -79q0 -81 -34.5 -115t-98.5 -34q-24 0 -44.5 7t-29.5 15l-8 7l-7 167q-3 82 28 126.5t104 76.5q108 48 149 100t41 132q0 57 -23.5 90t-86.5 50t-177 17q-65 0 -132 -7t-102 -14l-34 -7q-20 33 -20 86q0 86 75.5 125
t261.5 39q236 0 358 -81t122 -274zM481 248v-115q0 -78 -45 -113.5t-119 -35.5q-29 0 -57 7t-42 14l-13 7v115q0 78 45 113.5t119 35.5q29 0 57 -7t42 -14z" />
    <glyph glyph-name="at" unicode="@" horiz-adv-x="1968" 
d="M1784 696q0 -120 -23.5 -215t-62.5 -156.5t-92.5 -102.5t-110.5 -58t-121 -17q-223 0 -241 148h-5q-27 -66 -92 -109t-147 -43q-131 0 -214 102.5t-83 272.5q0 236 111.5 348.5t304.5 112.5q83 0 163.5 -16t120.5 -32l39 -16v-489v-21.5v-21t0.5 -18t2.5 -17.5t4.5 -13.5
t7 -12t11 -8t16 -6t20.5 -1.5q24 0 47 8.5t50 34.5t46.5 67t33 112.5t13.5 164.5q0 255 -137.5 378.5t-433.5 123.5q-140 0 -254 -42t-197.5 -124.5t-129.5 -211.5t-46 -296q0 -129 38.5 -231t118 -177t210.5 -115t307 -40q106 0 201 6t156 14.5t106.5 17.5t65.5 15l20 6
q12 -20 12 -71q0 -176 -559 -176q-232 0 -402.5 54t-273.5 155t-152 235.5t-49 306.5q0 205 61.5 367t172 267.5t262 160.5t332.5 55q385 0 578.5 -178.5t193.5 -497.5zM1130 475v334q-59 18 -122 18q-101 0 -158 -69.5t-57 -218.5q0 -109 41 -168.5t124 -59.5
q75 0 123.5 48t48.5 116z" />
    <glyph glyph-name="A" unicode="A" horiz-adv-x="1271" 
d="M893 1124l379 -1116q-52 -28 -113 -28q-81 0 -122.5 32.5t-69.5 116.5l-99 297h-481l-151 -430q-35 -12 -84 -12q-59 0 -95.5 33t-36.5 87q0 32 15 70l432 1133q61 28 149 28q206 0 277 -211zM459 631h344l-160 497h-4z" />
    <glyph glyph-name="B" unicode="B" horiz-adv-x="1157" 
d="M1096 410q0 -193 -135 -309.5t-390 -120.5q-129 -2 -238.5 13.5t-154.5 31.5l-45 16v1270h553q172 0 250 -68t78 -207q0 -118 -57 -200.5t-140 -112.5v-4q126 -6 202.5 -83t76.5 -226zM760 963q0 77 -35 110t-119 33h-227v-328h176q99 0 152 49t53 136zM842 403
q0 88 -42 129t-134 41h-287v-368q73 -21 192 -21q133 0 202 59t69 160z" />
    <glyph glyph-name="C" unicode="C" horiz-adv-x="1110" 
d="M1079 1178q0 -25 -4.5 -47t-8.5 -31l-5 -10q-139 32 -342 32q-202 0 -297.5 -98.5t-95.5 -329.5q0 -506 422 -506q92 0 163.5 7t96.5 15l26 7q8 -21 8 -72q0 -39 -14.5 -67t-51.5 -51t-108.5 -35t-177.5 -12q-290 0 -454 187.5t-164 528.5q0 173 43 300.5t123 204.5
t187.5 114t244.5 37q106 0 180.5 -8t119 -21.5t69 -36.5t32.5 -47.5t8 -60.5z" />
    <glyph glyph-name="D" unicode="D" horiz-adv-x="1302" 
d="M1231 715q0 -355 -180 -545t-508 -190q-77 0 -147.5 6.5t-116 15t-80.5 17.5t-51 15l-15 7v1270h531q284 0 425.5 -142t141.5 -454zM977 694q0 227 -89.5 319.5t-293.5 92.5h-215v-901q68 -21 164 -21q209 0 321.5 127t112.5 383z" />
    <glyph glyph-name="E" unicode="E" horiz-adv-x="1075" 
d="M1014 127q0 -57 -33 -92t-100 -35h-748v1311h844q16 -27 16 -78q0 -57 -33 -92t-100 -35h-481v-328h577q17 -27 17 -78q0 -57 -33 -92t-100 -35h-461v-368h618q17 -27 17 -78z" />
    <glyph glyph-name="F" unicode="F" horiz-adv-x="1044" 
d="M993 1233q0 -57 -33 -92t-100 -35h-481v-328h577q17 -27 17 -78q0 -57 -33 -92t-100 -35h-461v-561q-43 -28 -109 -28q-137 0 -137 149v1178h844q16 -27 16 -78z" />
    <glyph glyph-name="G" unicode="G" horiz-adv-x="1263" 
d="M1161 748v-707q-19 -7 -55.5 -17t-159 -27t-256.5 -17q-290 0 -454 187.5t-164 528.5q0 173 44.5 301t126.5 204.5t191 113.5t246 37q132 0 219 -11.5t133.5 -35.5t64 -53.5t17.5 -73.5q0 -25 -4.5 -47t-9.5 -31l-4 -10q-164 32 -367 32t-303 -99.5t-100 -328.5
q0 -506 422 -506q46 0 90.5 4t65.5 8l22 5v338h-250q-17 27 -17 78q0 57 33.5 92t100.5 35h368z" />
    <glyph glyph-name="H" unicode="H" horiz-adv-x="1331" 
d="M1198 1190v-1178q-42 -28 -108 -28q-138 0 -138 149v440h-573v-561q-43 -28 -109 -28q-137 0 -137 149v1178q43 28 109 28q137 0 137 -149v-412h573v533q43 28 109 28q137 0 137 -149z" />
    <glyph glyph-name="I" unicode="I" horiz-adv-x="512" 
d="M379 1190v-1178q-43 -28 -109 -28q-137 0 -137 149v1178q43 28 109 28q137 0 137 -149z" />
    <glyph glyph-name="J" unicode="J" horiz-adv-x="884" 
d="M762 1190v-813q0 -216 -94 -306.5t-303 -90.5q-175 0 -254.5 38.5t-79.5 124.5q0 22 2.5 40.5t4.5 26.5l3 7q96 -29 250 -29q128 0 176.5 42t48.5 159v922q43 28 109 28q137 0 137 -149z" />
    <glyph glyph-name="K" unicode="K" horiz-adv-x="1208" 
d="M1036 469l121 -457q-45 -28 -113 -28q-70 0 -113 35.5t-63 113.5l-73 293q-18 69 -51.5 93t-108.5 24h-256v-531q-43 -28 -109 -28q-137 0 -137 149v1178q43 28 109 28q137 0 137 -149v-442h113q64 0 84.5 11.5t50.5 61.5l297 502h69q53 0 89 -35.5t36 -87.5
q0 -41 -28 -86l-283 -416q172 -15 229 -229z" />
    <glyph glyph-name="L" unicode="L" horiz-adv-x="1044" 
d="M1014 127q0 -57 -33 -92t-100 -35h-748v1311q43 28 109 28q137 0 137 -149v-985h618q17 -27 17 -78z" />
    <glyph glyph-name="M" unicode="M" horiz-adv-x="1699" 
d="M1567 1137v-1125q-43 -28 -109 -28q-140 0 -137 149l22 893h-4l-348 -993q-5 -5 -14.5 -12.5t-44 -20t-74.5 -12.5q-148 0 -196 145l-297 893h-5l19 -1014q-43 -28 -109 -28q-137 0 -137 149v1157q7 5 20.5 13.5t55 22t82.5 13.5q211 0 272 -192l283 -877h4l358 1033
q58 36 140 36q99 0 159 -56t60 -146z" />
    <glyph glyph-name="N" unicode="N" horiz-adv-x="1374" 
d="M1241 1190l-6 -1157q-6 -5 -18 -13.5t-50.5 -22t-79.5 -13.5q-179 0 -270 174l-455 876h-4l21 -1022q-43 -28 -109 -28q-137 0 -137 149v1157q8 5 21.5 13.5t55.5 22t83 13.5q93 0 153.5 -40t104.5 -125l457 -887h4l-17 1024q43 28 109 28q137 0 137 -149z" />
    <glyph glyph-name="O" unicode="O" 
d="M1280 696q0 -340 -164.5 -528t-439.5 -188q-282 0 -443 187t-161 529q0 656 602 656q144 0 253.5 -35.5t189.5 -112t121.5 -204t41.5 -304.5zM1026 694q0 223 -94 334t-258 111q-157 0 -252.5 -112t-95.5 -333q0 -248 99.5 -381t250.5 -133q149 0 249.5 133.5
t100.5 380.5z" />
    <glyph glyph-name="P" unicode="P" horiz-adv-x="1116" 
d="M1085 963q0 -219 -128 -335t-347 -116h-231v-500q-43 -28 -109 -28q-137 0 -137 149v1178h594q164 0 261 -94.5t97 -253.5zM831 920q0 186 -174 186h-278v-389h231q103 0 162 52.5t59 150.5z" />
    <glyph glyph-name="Q" unicode="Q" horiz-adv-x="1361" 
d="M1341 78q0 -23 -4 -42.5t-8 -27.5l-4 -8h-649q-284 0 -444 178t-160 518q0 656 602 656q145 0 254.5 -35.5t189.5 -111t121 -199.5t41 -295q0 -101 -26.5 -190t-69.5 -149.5t-86.5 -100.5t-87.5 -62v-4h198q67 0 100 -35t33 -92zM1026 694q0 223 -94 334t-258 111
q-157 0 -252.5 -112t-95.5 -333q0 -246 98.5 -369.5t251.5 -123.5q69 0 131 31t111.5 90.5t78.5 155.5t29 216z" />
    <glyph glyph-name="R" unicode="R" horiz-adv-x="1208" 
d="M1036 469l121 -457q-45 -28 -113 -28q-70 0 -113 35.5t-63 113.5l-73 293q-18 69 -51.5 93t-108.5 24h-256v-531q-43 -28 -109 -28q-137 0 -137 149v1178h584q172 0 260 -74.5t88 -212.5q0 -130 -68.5 -217t-169.5 -115v-4q85 -7 132.5 -59t76.5 -160zM811 950
q0 156 -174 156h-258v-358h207q103 0 164 53t61 149z" />
    <glyph glyph-name="S" unicode="S" horiz-adv-x="1099" 
d="M1028 418q0 -438 -493 -438q-218 0 -308 44t-90 134q0 22 2.5 40t4.5 26l3 7q16 -5 45.5 -12t119 -19t177.5 -12q157 0 227 47t70 142q0 66 -21.5 101t-78.5 53.5t-170 25.5q-209 14 -326.5 115t-117.5 289q0 391 510 391q162 0 254 -22t123.5 -58t31.5 -96
q0 -24 -5 -46.5t-10 -33.5l-5 -11q-172 37 -340 37q-170 0 -238.5 -40.5t-68.5 -133.5q0 -91 66.5 -137t211.5 -55q238 -17 332 -95t94 -243z" />
    <glyph glyph-name="T" unicode="T" horiz-adv-x="1167" 
d="M1157 1233q0 -57 -33 -92t-100 -35h-317v-1094q-43 -28 -109 -28q-137 0 -137 149v973h-434q-17 27 -17 78q0 57 33 92t100 35h998q16 -27 16 -78z" />
    <glyph glyph-name="U" unicode="U" 
d="M1219 1190v-729q0 -215 -136.5 -348t-396.5 -133q-136 0 -242.5 36.5t-173.5 102t-102 152.5t-35 190v850q43 28 109 28q137 0 137 -149v-723q0 -131 82.5 -209t224.5 -78q137 0 212 77t75 210v844q42 28 108 28q138 0 138 -149z" />
    <glyph glyph-name="V" unicode="V" horiz-adv-x="1302" 
d="M1262 1214q0 -36 -13 -69l-426 -1133q-63 -28 -151 -28q-207 0 -277 211l-375 1116q52 28 113 28q82 0 124.5 -33t68.5 -116l321 -1000h4l398 1133q35 12 84 12q58 0 93.5 -33.5t35.5 -87.5z" />
    <glyph glyph-name="W" unicode="W" horiz-adv-x="1906" 
d="M1876 1204q0 -32 -8 -59l-295 -1133q-64 -28 -152 -28q-105 0 -177 51.5t-99 159.5l-178 739h-4l-256 -922q-64 -28 -152 -28q-225 0 -274 211l-250 1116q39 28 100 28q84 0 126 -32.5t60 -116.5l207 -1000h4l322 1133q25 16 84 16q83 0 127 -33t65 -116l258 -1000h5
l268 1133q35 12 84 12q61 0 97 -36t38 -95z" />
    <glyph glyph-name="X" unicode="X" horiz-adv-x="1300" 
d="M811 682l469 -651q-6 -5 -16.5 -13t-47 -21t-77.5 -13q-76 0 -126 25.5t-89 84.5l-267 402h-4l-291 -408q-40 -56 -85 -80t-121 -24q-43 0 -77 12t-47 24l-12 11l488 649l-442 610q6 5 16.5 13.5t47 22t77.5 13.5q81 0 129.5 -26.5t85.5 -83.5l237 -365h5l344 486
q22 2 34 2q68 0 108 -36t40 -89q0 -54 -33 -99z" />
    <glyph glyph-name="Y" unicode="Y" horiz-adv-x="1220" 
d="M1200 1227q0 -54 -33 -99l-422 -546v-570q-42 -28 -108 -28q-137 0 -137 149v451l-510 706q5 5 15 13.5t44 22t72 13.5q87 0 135.5 -23.5t89.5 -86.5l279 -426h4l389 547q23 2 35 2q67 0 107 -36t40 -89z" />
    <glyph glyph-name="Z" unicode="Z" horiz-adv-x="1163" 
d="M94 1311h1069l-745 -1106h569q67 0 100 -35t33 -92q0 -23 -4 -42.5t-8 -27.5l-4 -8h-1104l745 1106h-534q-67 0 -100 35t-33 92q0 23 4 42.5t8 27.5z" />
    <glyph glyph-name="bracketleft" unicode="[" horiz-adv-x="962" 
d="M850 -334q0 -23 -4 -42t-8 -26l-4 -8h-496v1966h496q16 -24 16 -75q0 -57 -32.5 -89t-100.5 -32h-144v-1573h144q68 0 100.5 -32t32.5 -89z" />
    <glyph glyph-name="backslash" unicode="\" horiz-adv-x="1267" 
d="M342 1477l848 -1817q-1 -3 -3.5 -9t-13.5 -21t-25.5 -26t-40.5 -20.5t-58 -9.5q-78 0 -123 96l-848 1817q1 3 3.5 9t13.5 21t25.5 26t40.5 20.5t58 9.5q78 0 123 -96z" />
    <glyph glyph-name="bracketright" unicode="]" horiz-adv-x="962" 
d="M625 1556v-1966h-496q-16 25 -16 76q0 57 32.5 89t100.5 32h143v1573h-143q-68 0 -100.5 32t-32.5 89q0 23 4 41.5t8 25.5l4 8h496z" />
    <glyph glyph-name="underscore" unicode="_" horiz-adv-x="921" 
d="M1075 -283q0 -57 -33 -92t-100 -35h-1079q-17 27 -17 78q0 57 33.5 92t100.5 35h1079q16 -27 16 -78z" />
    <glyph glyph-name="grave" unicode="`" horiz-adv-x="593" 
d="M512 1198q0 -2 -0.5 -6.5t-6 -15t-14.5 -18.5t-28.5 -14.5t-46.5 -6.5q-122 0 -228 94.5t-106 191.5q0 60 29.5 87.5t89.5 27.5q12 0 25.5 -2.5t20.5 -5.5l7 -2q10 -47 92 -156q49 -65 90.5 -108.5t58.5 -54.5z" />
    <glyph glyph-name="a" unicode="a" horiz-adv-x="972" 
d="M860 709v-697q-43 -28 -102 -28q-133 0 -133 149v23h-4q-32 -76 -108.5 -126t-172.5 -50q-49 0 -95 15t-87 46.5t-65.5 88.5t-24.5 132q0 84 30.5 145.5t83 95t112 49t128.5 15.5q100 0 203 -20v121q0 75 -50.5 105t-189.5 30q-65 0 -128.5 -7.5t-94.5 -15.5l-31 -8
q-14 25 -14 84q0 87 86 127.5t278 40.5q87 0 153 -15t118.5 -50t80 -97.5t27.5 -152.5zM625 369v43q-67 16 -148 16q-89 0 -131.5 -32.5t-42.5 -100.5q0 -57 32 -88t87 -31q88 0 145.5 56.5t57.5 136.5z" />
    <glyph glyph-name="b" unicode="b" horiz-adv-x="1052" 
d="M991 547q0 -256 -138 -411.5t-349 -155.5q-199 0 -305.5 103t-106.5 275v1043q44 29 103 29q133 0 133 -150v-356q37 39 109.5 69.5t180.5 30.5q71 0 135 -27t118.5 -81t87 -149.5t32.5 -219.5zM748 510q0 176 -61.5 247.5t-176.5 71.5q-108 0 -182 -45v-393
q0 -115 48 -173t130 -58q106 0 174 87t68 263z" />
    <glyph glyph-name="c" unicode="c" horiz-adv-x="874" 
d="M834 868q0 -25 -5 -46t-9 -30l-5 -8q-135 19 -254 19q-126 0 -191 -66t-65 -207q0 -196 71 -277t214 -81q65 0 114.5 3t66.5 6l17 3q9 -16 9 -67q0 -71 -65.5 -104t-199.5 -33q-151 0 -259 73t-160 196t-52 283q0 241 125 366.5t326 125.5q185 0 253.5 -35.5t68.5 -120.5
z" />
    <glyph glyph-name="d" unicode="d" horiz-adv-x="1099" 
d="M987 1280v-1268q-43 -28 -102 -28q-133 0 -133 149v14h-4q-31 -74 -109.5 -120.5t-175.5 -46.5q-192 0 -297 131t-105 387q0 253 126 389.5t335 136.5q135 0 230 -53v430q43 29 102 29q133 0 133 -150zM752 459v366q-101 23 -183 23q-116 0 -190 -82t-74 -256
q0 -169 57 -251.5t160 -82.5q106 0 168 75.5t62 207.5z" />
    <glyph glyph-name="e" unicode="e" horiz-adv-x="950" 
d="M909 653q0 -100 -21 -130.5t-100 -30.5h-481q1 -167 72 -243.5t211 -76.5q58 0 107.5 3t70.5 6l20 3q9 -16 9 -67q0 -71 -65.5 -104t-199.5 -33q-151 0 -259 73t-160 196t-52 283q0 122 33.5 216.5t93.5 154.5t141 90.5t179 30.5q187 0 294 -100.5t107 -270.5zM315 645
h367q7 79 -34.5 131.5t-133.5 52.5q-94 0 -144 -48.5t-55 -135.5z" />
    <glyph glyph-name="f" unicode="f" horiz-adv-x="665" 
d="M686 907q0 -57 -32.5 -89t-100.5 -32h-215v-1183q-43 -29 -102 -29q-134 0 -134 150v1423q0 154 81 234.5t239 80.5q129 0 189.5 -36.5t60.5 -100.5q0 -22 -2 -39t-4 -23l-2 -6q-39 5 -160 5q-97 0 -131.5 -34t-34.5 -126v-119h332q16 -25 16 -76z" />
    <glyph glyph-name="g" unicode="g" horiz-adv-x="976" 
d="M895 983v-246q0 -215 -109.5 -322.5t-322.5 -107.5q-56 0 -111 10q-24 -28 -24 -63q0 -28 8 -43.5t31 -26.5t66 -11t114 3q340 20 340 -252q0 -181 -119 -265.5t-356 -84.5q-146 0 -217.5 37t-71.5 121q0 21 2.5 37.5t4.5 22.5l3 7q95 -30 238 -30q160 0 220 28t60 94
q0 61 -53.5 82t-196.5 15q-147 -6 -213.5 37.5t-66.5 142.5q0 97 94 203q-75 47 -114.5 126t-39.5 181q0 84 27 151t72.5 109t103 64t121.5 22q205 0 270 -156h4v2q0 79 34.5 110.5t99.5 31.5q26 0 51.5 -7t37.5 -15zM659 643q0 80 -56 132t-148 52q-67 0 -112.5 -43
t-45.5 -118q0 -84 47.5 -131.5t132.5 -47.5q84 0 133 43.5t49 112.5z" />
    <glyph glyph-name="h" unicode="h" horiz-adv-x="1105" 
d="M993 618v-606q-43 -28 -102 -28q-133 0 -133 149v461q0 130 -42.5 181.5t-137.5 51.5q-105 0 -167.5 -79t-62.5 -211v-525q-43 -28 -102 -28q-133 0 -133 149v1268q43 29 102 29q133 0 133 -150v-432h4q31 74 110.5 125t182.5 51q181 0 264.5 -92.5t83.5 -313.5z" />
    <glyph glyph-name="i" unicode="i" horiz-adv-x="495" 
d="M358 1401v-74q0 -149 -153 -149q-26 0 -52 7t-39 14l-12 7v74q0 150 154 150q26 0 51.5 -7t38.5 -15zM465 113q0 -56 -41.5 -92.5t-120.5 -36.5q-98 0 -144 56t-46 173v770q43 29 102 29q133 0 133 -150v-616q0 -94 76 -94l33 2q8 -14 8 -41z" />
    <glyph glyph-name="j" unicode="j" horiz-adv-x="466" 
d="M365 1401v-74q0 -149 -154 -149q-26 0 -51.5 7t-37.5 14l-13 7v74q0 150 153 150q26 0 52 -7t38 -15zM354 862v-973q0 -155 -76 -235t-227 -80q-113 0 -169 37t-56 100q0 22 2 39t4 23l2 6q29 -4 135 -4q91 0 120.5 32.5t29.5 118.5v1057q43 29 102 29q133 0 133 -150z
" />
    <glyph glyph-name="k" unicode="k" horiz-adv-x="1005" 
d="M866 377l99 -365q-48 -28 -107 -28q-132 0 -170 149l-51 201q-19 73 -48.5 95t-107.5 22h-133v-439q-43 -28 -102 -28q-133 0 -133 149v1268q43 29 102 29q133 0 133 -150v-633h29q62 0 112 36t105 136q29 52 47.5 97t22.5 64l4 19q38 13 75 13q66 0 101 -31.5t35 -85.5
q-1 -95 -85.5 -179t-195.5 -116v-4q114 -11 176.5 -61t91.5 -158z" />
    <glyph glyph-name="l" unicode="l" horiz-adv-x="495" 
d="M465 113q0 -56 -41.5 -92.5t-120.5 -36.5q-98 0 -144 56t-46 173v1188q43 29 102 29q133 0 133 -150v-1034q0 -94 76 -94l33 2q8 -14 8 -41z" />
    <glyph glyph-name="m" unicode="m" horiz-adv-x="1751" 
d="M1638 618v-606q-43 -28 -102 -28q-133 0 -133 149v461q0 130 -42.5 181.5t-137.5 51.5q-105 0 -167.5 -79t-62.5 -211v-525q-43 -28 -102 -28q-133 0 -133 149v461q0 130 -42.5 181.5t-137.5 51.5q-105 0 -167.5 -79t-62.5 -211v-525q-43 -28 -102 -28q-133 0 -133 149
v850q43 29 102 29q133 0 133 -150v-14h4q31 74 110.5 125t182.5 51q247 0 316 -180h4q39 76 130 128t195 52q181 0 264.5 -92.5t83.5 -313.5z" />
    <glyph glyph-name="n" unicode="n" horiz-adv-x="1105" 
d="M993 618v-606q-43 -28 -102 -28q-133 0 -133 149v461q0 130 -42.5 181.5t-137.5 51.5q-105 0 -167.5 -79t-62.5 -211v-525q-43 -28 -102 -28q-133 0 -133 149v850q43 29 102 29q133 0 133 -150v-14h4q31 74 110.5 125t182.5 51q181 0 264.5 -92.5t83.5 -313.5z" />
    <glyph glyph-name="o" unicode="o" horiz-adv-x="1064" 
d="M1004 532q0 -158 -56 -282.5t-164.5 -197t-251.5 -72.5q-116 0 -207 41.5t-148 116.5t-86.5 174.5t-29.5 219.5q0 244 126 368t343 124q474 0 474 -492zM760 530q0 144 -62 216.5t-168 72.5q-102 0 -163.5 -73t-61.5 -216q0 -184 60 -271t167 -87q106 0 167 87t61 271z
" />
    <glyph glyph-name="p" unicode="p" horiz-adv-x="1089" 
d="M1038 514q0 -254 -126 -394t-334 -140q-135 0 -230 55v-432q-43 -29 -102 -29q-133 0 -133 150v1259q43 29 102 29q133 0 133 -150v-14h4q32 76 110.5 126t174.5 50q195 0 298 -127t103 -383zM795 494q0 168 -57 250.5t-160 82.5q-105 0 -167.5 -79t-62.5 -211v-357
q105 -24 182 -24q116 0 190.5 82t74.5 256z" />
    <glyph glyph-name="q" unicode="q" horiz-adv-x="1089" 
d="M987 942v-1339q-43 -29 -102 -29q-133 0 -133 150v423h-4q-31 -74 -109.5 -120.5t-175.5 -46.5q-192 0 -297 131t-105 387q0 258 130 392t376 134q111 0 216 -20.5t155 -41.5zM752 459v364q-66 25 -183 25q-116 0 -190 -82t-74 -256q0 -169 57 -251.5t160 -82.5
q106 0 168 75.5t62 207.5z" />
    <glyph glyph-name="r" unicode="r" horiz-adv-x="749" 
d="M750 866q0 -24 -5 -45t-11 -30l-5 -9q-60 21 -160 21q-110 0 -165.5 -62t-55.5 -204v-525q-43 -28 -102 -28q-133 0 -133 149v850q43 29 102 29q133 0 133 -150v-14h4q35 73 103 124.5t139 51.5q81 0 118.5 -38t37.5 -120z" />
    <glyph glyph-name="s" unicode="s" horiz-adv-x="886" 
d="M825 326q0 -351 -401 -351q-162 0 -233.5 35.5t-71.5 120.5q0 22 2.5 39t4.5 23l3 6q94 -29 250 -29q129 0 172 26.5t43 90.5q0 58 -37 80.5t-151 29.5q-160 11 -252.5 92t-92.5 226q0 155 110 232t308 77q126 0 195.5 -17t96 -50t26.5 -91q0 -24 -5.5 -45.5t-10.5 -30.5
l-5 -10q-101 23 -248 23q-132 0 -178.5 -22.5t-46.5 -78.5q0 -58 41.5 -84.5t147.5 -33.5q181 -12 257 -71t76 -187z" />
    <glyph glyph-name="t" unicode="t" horiz-adv-x="716" 
d="M707 907q0 -56 -33 -88.5t-101 -32.5h-235v-454q0 -85 33 -118.5t125 -33.5l159 4q9 -18 9 -67q0 -63 -65.5 -100t-195.5 -37q-155 0 -228 79.5t-73 235.5v940q44 29 103 29q133 0 133 -150v-131h352q17 -25 17 -76z" />
    <glyph glyph-name="u" unicode="u" horiz-adv-x="1105" 
d="M993 862v-850q-43 -28 -102 -28q-133 0 -133 149v14h-4q-30 -73 -109.5 -120t-183.5 -47q-177 0 -262.5 94.5t-85.5 310.5v598q43 29 102 29q133 0 133 -150v-452q0 -130 43 -182t137 -52q106 0 168 75.5t62 207.5v524q43 29 102 29q133 0 133 -150z" />
    <glyph glyph-name="v" unicode="v" horiz-adv-x="1056" 
d="M1016 887q0 -33 -15 -70l-309 -805q-51 -28 -139 -28q-100 0 -164.5 50.5t-101.5 160.5l-267 788q46 29 105 29q78 0 120 -34t68 -116l215 -672h4l279 805q31 13 78 13q57 0 92 -32.5t35 -88.5z" />
    <glyph glyph-name="w" unicode="w" horiz-adv-x="1699" 
d="M1649 885q0 -27 -13 -68l-256 -805q-53 -28 -141 -28q-102 0 -166.5 50.5t-93.5 160.5l-117 446h-4l-203 -629q-53 -28 -141 -28q-102 0 -166.5 50.5t-93.5 160.5l-203 788q46 29 105 29q80 0 124 -34t62 -116l150 -672h4l264 801q35 17 82 17q73 0 114 -34t64 -116
l190 -668h4l230 805q33 13 80 13q58 0 91.5 -33.5t33.5 -89.5z" />
    <glyph glyph-name="x" unicode="x" horiz-adv-x="1046" 
d="M668 514l368 -487q-5 -5 -15 -13t-44.5 -21t-73.5 -13q-73 0 -116 24t-87 86l-178 250l-178 -250q-45 -63 -87.5 -86.5t-115.5 -23.5q-37 0 -70 12t-47 24l-14 11l375 485l-344 451q5 5 14.5 13.5t43.5 22t73 13.5q74 0 118 -24.5t87 -86.5l151 -221l246 342q17 2 29 2
q62 0 100.5 -36.5t38.5 -88.5q0 -57 -35 -98z" />
    <glyph glyph-name="y" unicode="y" horiz-adv-x="1056" 
d="M1016 887q0 -33 -15 -70l-307 -817q-75 -201 -103 -256q-60 -117 -139 -151q-44 -19 -100 -19q-34 0 -60.5 8t-40.5 19t-23.5 22t-11.5 19l-3 8q3 2 8.5 5.5t23 16.5t35 29t42.5 43.5t47 58.5q31 43 56 90.5t35 74.5l9 26q-126 30 -184 201l-265 788q46 29 105 29
q78 0 120 -34t68 -116l215 -672h4l279 805q31 13 78 13q58 0 92.5 -33.5t34.5 -87.5z" />
    <glyph glyph-name="z" unicode="z" horiz-adv-x="989" 
d="M94 983h875l-563 -786h397q68 0 100.5 -32t32.5 -89q0 -23 -4 -42t-8 -26l-4 -8h-920l563 786h-352q-68 0 -100.5 32t-32.5 89q0 23 4 42t8 27z" />
    <glyph glyph-name="braceleft" unicode="{" horiz-adv-x="1015" 
d="M913 -289q0 -63 -56 -100t-169 -37q-151 0 -227 80.5t-76 234.5v480q0 112 -106 112q-69 0 -102.5 33t-33.5 88q0 23 4.5 42t8.5 26l4 8q26 -2 71 -2q73 2 113.5 44.5t40.5 119.5v417q0 155 76 235.5t227 80.5q113 0 169 -37t56 -100q0 -22 -2 -39t-4 -23l-2 -6
q-29 4 -135 4q-91 0 -120 -32t-29 -119v-314q0 -127 -40.5 -196.5t-136.5 -96.5v-4q98 -24 137.5 -84.5t39.5 -175.5v-424q0 -87 29 -119t120 -32l135 4q8 -19 8 -68z" />
    <glyph glyph-name="bar" unicode="|" horiz-adv-x="1218" 
d="M727 1423v-1820q-43 -29 -102 -29q-133 0 -133 150v1820q43 29 102 29q133 0 133 -150z" />
    <glyph glyph-name="braceright" unicode="}" horiz-adv-x="1015" 
d="M872 575q0 -23 -4 -41.5t-8 -25.5l-4 -8q-27 2 -72 2q-73 -2 -113 -44.5t-40 -119.5v-449q0 -155 -76 -235t-227 -80q-113 0 -169.5 37t-56.5 100q0 22 2 39t4 23l3 6q29 -4 135 -4q91 0 120 32t29 119v334q0 129 40.5 202.5t135.5 100.5v4q-98 24 -137 84.5t-39 175.5
v394q0 87 -29 119t-120 32l-135 -4q-9 19 -9 68q0 63 56.5 100t169.5 37q151 0 227 -81t76 -235v-448q0 -113 106 -113q69 0 102 -32.5t33 -88.5z" />
    <glyph glyph-name="uni00A0" unicode="&#xa0;" horiz-adv-x="479" 
 />
    <glyph glyph-name="exclamdown" unicode="&#xa1;" horiz-adv-x="604" 
d="M440 983v-115q0 -78 -45 -113.5t-119 -35.5q-29 0 -57 7.5t-41 14.5l-14 7v114q0 78 45 114t119 36q29 0 57 -7t41 -15zM399 547l21 -832q3 -149 -133 -149q-30 0 -61 7t-46 14l-16 7l20 832q1 80 35.5 114.5t97.5 34.5q24 0 44.5 -7t28.5 -14z" />
    <glyph glyph-name="cent" unicode="&#xa2;" horiz-adv-x="1107" 
d="M975 860q0 -25 -4.5 -46t-9.5 -30l-5 -8q-104 27 -309 27q-134 0 -202 -65.5t-68 -207.5q0 -196 74.5 -277t224.5 -81q70 0 132.5 6t89.5 12l28 5q8 -17 8 -68q0 -64 -45.5 -98.5t-157.5 -44.5v-291q-43 -29 -102 -29q-133 0 -133 150v178q-173 37 -268 183.5t-95 356.5
q0 212 99 335t264 149v276q43 29 102 29q133 0 133 -150v-153q136 -12 190 -48.5t54 -109.5z" />
    <glyph glyph-name="sterling" unicode="&#xa3;" horiz-adv-x="1470" 
d="M1337 121q0 -57 -32.5 -89t-100.5 -32h-1054q-17 25 -17 76q0 57 32.5 89t100.5 32h113v698q0 158 94.5 236.5t306.5 78.5q79 0 136 -7.5t90.5 -19t53 -30.5t26 -38.5t6.5 -45.5q0 -22 -2 -39t-4 -23l-3 -6q-98 9 -221 9q-106 0 -159 -15.5t-71 -48t-18 -96.5v-119h435
q16 -25 16 -76q0 -120 -133 -120h-318v-338h707q16 -25 16 -76z" />
    <glyph glyph-name="yen" unicode="&#xa5;" horiz-adv-x="1476" 
d="M1343 1227q0 -56 -32 -99l-389 -503h340q16 -27 16 -78q0 -57 -33 -92t-100 -35h-256v-72h373q16 -27 16 -78q0 -57 -33 -92t-100 -35h-256v-131q-43 -28 -109 -28q-137 0 -137 149v10h-373q-16 27 -16 78q0 57 33 92t100 35h256v72h-373q-16 27 -16 78q0 57 33 92
t100 35h225l-479 665q5 5 15 13.5t44 22t72 13.5q87 0 135.5 -23.5t89.5 -86.5l279 -426h4l389 547q23 2 35 2q67 0 107 -36t40 -89z" />
    <glyph glyph-name="brokenbar" unicode="&#xa6;" horiz-adv-x="1218" 
d="M727 1423v-592q-43 -28 -102 -28q-133 0 -133 149v592q43 29 102 29q133 0 133 -150zM727 195v-592q-43 -29 -102 -29q-133 0 -133 150v591q43 29 102 29q133 0 133 -149z" />
    <glyph glyph-name="section" unicode="&#xa7;" horiz-adv-x="1325" 
d="M1141 12q0 -438 -494 -438q-218 0 -307.5 44t-89.5 134q0 22 2.5 40.5t5.5 25.5l2 8q16 -5 45.5 -12t119 -19t177.5 -12q157 0 227 46.5t70 141.5q0 66 -21.5 101t-78.5 54t-170 26q-210 14 -327.5 114.5t-117.5 288.5q0 97 62 182q-62 94 -62 224q0 391 510 391
q123 0 204.5 -11.5t126 -35.5t62 -54.5t17.5 -74.5q0 -24 -5 -46.5t-11 -33.5l-5 -11q-172 37 -340 37q-170 0 -238.5 -40.5t-68.5 -133.5q0 -91 67 -137t212 -55q238 -17 332 -95t94 -243q0 -103 -68 -189q68 -77 68 -217zM899 377q0 66 -21.5 101t-78.5 53.5t-170 25.5
q-95 6 -185 35q-8 -32 -8 -49q0 -91 67 -137.5t212 -55.5q109 -7 172 -22q12 30 12 49z" />
    <glyph glyph-name="dieresis" unicode="&#xa8;" horiz-adv-x="808" 
d="M727 1391v-74q0 -150 -154 -150q-26 0 -51.5 7.5t-37.5 14.5l-13 7v74q0 149 154 149q26 0 51.5 -7t37.5 -14zM338 1391v-74q0 -150 -154 -150q-26 0 -51.5 7.5t-38.5 14.5l-12 7v74q0 149 154 149q26 0 51.5 -7t38.5 -14z" />
    <glyph glyph-name="copyright" unicode="&#xa9;" horiz-adv-x="1638" 
d="M1505 666q0 -186 -92 -344t-250 -250t-344 -92t-344 92t-250 250t-92 344t92 344t250 250t344 92t344 -92t250 -250t92 -344zM1372 666q0 112 -44 214.5t-118 176.5t-176.5 118t-214.5 44t-214.5 -44t-176.5 -118t-118 -176.5t-44 -214.5t44 -214.5t118 -176.5
t176.5 -118t214.5 -44t214.5 44t176.5 118t118 176.5t44 214.5zM1038 918q0 -13 -2 -25.5t-4 -18.5l-2 -6q-70 17 -172 17t-149 -47t-47 -162q0 -250 210 -250q46 0 82 3.5t49 6.5l13 4q4 -12 4 -39q0 -40 -37.5 -62t-138.5 -22q-145 0 -232.5 95t-87.5 264t84 248.5
t226 79.5q87 0 133 -11t58.5 -27.5t12.5 -47.5z" />
    <glyph glyph-name="guillemotleft" unicode="&#xab;" horiz-adv-x="1357" 
d="M1133 281q0 -29 -11.5 -52.5t-28.5 -37t-33.5 -23t-27.5 -12.5l-12 -4l-449 436l449 436q5 -1 12.5 -3.5t27 -12.5t34.5 -23.5t27 -37t12 -52.5q0 -73 -64 -129l-203 -178l203 -178q64 -56 64 -129zM674 281q0 -29 -11.5 -52.5t-28 -37t-33.5 -23t-29 -12.5l-11 -4
l-448 436l448 436q5 -1 12.5 -3.5t27 -12.5t34.5 -23.5t27 -37t12 -52.5q0 -73 -64 -129l-202 -178l202 -178q64 -56 64 -129z" />
    <glyph glyph-name="registered" unicode="&#xae;" horiz-adv-x="1638" 
d="M1505 666q0 -186 -92 -344t-250 -250t-344 -92t-344 92t-250 250t-92 344t92 344t250 250t344 92t344 -92t250 -250t92 -344zM1372 666q0 112 -44 214.5t-118 176.5t-176.5 118t-214.5 44t-214.5 -44t-176.5 -118t-118 -176.5t-44 -214.5t44 -214.5t118 -176.5
t176.5 -118t214.5 -44t214.5 44t176.5 118t118 176.5t44 214.5zM1042 563l62 -229q-29 -15 -64 -15q-74 0 -94 76l-37 146q-9 35 -25 46t-53 11h-126v-264q-23 -15 -60 -15q-32 0 -53 18.5t-21 57.5v588h301q88 0 136.5 -37t48.5 -106q0 -65 -34 -108t-85 -58v-4
q43 -3 66.5 -28t37.5 -79zM920 803q0 74 -86 74h-129v-172h102q52 0 82.5 25.5t30.5 72.5z" />
    <glyph glyph-name="degree" unicode="&#xb0;" horiz-adv-x="962" 
d="M829 1311q0 -145 -101.5 -246.5t-246.5 -101.5t-246.5 101.5t-101.5 246.5t101.5 246.5t246.5 101.5t246.5 -101.5t101.5 -246.5zM645 1311q0 67 -48.5 115.5t-115.5 48.5t-115.5 -48.5t-48.5 -115.5t48.5 -115.5t115.5 -48.5t115.5 48.5t48.5 115.5z" />
    <glyph glyph-name="acute" unicode="&#xb4;" horiz-adv-x="593" 
d="M512 1423q0 -97 -106 -191.5t-228 -94.5q-27 0 -46.5 6.5t-28.5 15.5t-14.5 17.5t-6.5 15.5v6q6 3 18.5 11.5t55.5 53t92 109.5q36 48 59 87t28 54l5 15q26 10 53 10q60 0 89.5 -27.5t29.5 -87.5z" />
    <glyph glyph-name="mu" unicode="&#xb5;" horiz-adv-x="1105" 
d="M993 862v-850q-43 -28 -102 -28q-133 0 -133 149v14h-4q-30 -73 -109.5 -120t-183.5 -47q-55 0 -113 10v-387q-43 -29 -102 -29q-133 0 -133 150v1259q43 29 102 29q133 0 133 -150v-452q0 -130 43 -182t137 -52q106 0 168 75.5t62 207.5v524q43 29 102 29
q133 0 133 -150z" />
    <glyph glyph-name="paragraph" unicode="&#xb6;" horiz-adv-x="1454" 
d="M1167 1311v-1422q0 -154 -76 -234.5t-227 -80.5q-113 0 -169 41t-56 104q0 23 2 40t4 23l2 5q29 -4 135 -4q85 0 112.5 28.5t27.5 114.5v422h-211q-150 0 -267 56t-188.5 173.5t-71.5 282.5q0 199 118 325t302 126h563z" />
    <glyph glyph-name="periodcentered" unicode="&#xb7;" horiz-adv-x="555" 
d="M416 719v-115q0 -78 -45 -113.5t-119 -35.5q-29 0 -57.5 7t-42.5 14l-13 7v115q0 78 45 114t119 36q29 0 57.5 -7t41.5 -15z" />
    <glyph glyph-name="cedilla" unicode="&#xb8;" horiz-adv-x="512" 
d="M430 -203q0 -86 -66.5 -156.5t-162.5 -70.5q-32 0 -56 8.5t-35.5 20.5t-18.5 24t-8 21l-1 8q3 1 9.5 3.5t23 12.5t31.5 23t32 36.5t27 51.5q13 36 14.5 72t-3.5 53l-5 18q33 17 82 17q61 0 99 -34.5t38 -107.5z" />
    <glyph glyph-name="guillemotright" unicode="&#xbb;" horiz-adv-x="1357" 
d="M797 1024l448 -436l-448 -436q-5 1 -12.5 3.5t-27 12.5t-34.5 23.5t-27 37t-12 52.5q0 73 64 129l202 178l-202 178q-64 56 -64 129q0 29 11.5 52.5t28 37t33.5 23t29 12.5zM338 1024l448 -436l-448 -436q-5 1 -12.5 3.5t-27 12.5t-34.5 23.5t-27 37t-12 52.5
q0 73 64 129l203 178l-203 178q-64 56 -64 129q0 29 11.5 52.5t28.5 37t33.5 23t27.5 12.5z" />
    <glyph glyph-name="questiondown" unicode="&#xbf;" horiz-adv-x="776" 
d="M571 983v-115q0 -78 -44.5 -113.5t-118.5 -35.5q-29 0 -57.5 7.5t-42.5 14.5l-13 7v114q0 78 45 114t119 36q29 0 57 -7t42 -15zM797 -270q0 -86 -76 -125t-262 -39q-237 0 -358 80.5t-121 273.5q0 262 249 377q61 27 77 50t16 79q0 81 34.5 115t98.5 34q24 0 44.5 -7
t28.5 -14l9 -7l6 -168q3 -82 -27.5 -126.5t-103.5 -76.5q-108 -49 -149.5 -100t-41.5 -131q0 -86 60 -122t227 -36q65 0 132 7.5t102 14.5l34 7q21 -33 21 -86z" />
    <glyph glyph-name="Agrave" unicode="&#xc0;" horiz-adv-x="1271" 
d="M893 1124l379 -1116q-52 -28 -113 -28q-81 0 -122.5 32.5t-69.5 116.5l-99 297h-481l-151 -430q-35 -12 -84 -12q-59 0 -95.5 33t-36.5 87q0 32 15 70l432 1133q61 28 149 28q206 0 277 -211zM459 631h344l-160 497h-4zM829 1444q0 -3 -0.5 -7t-6 -14.5t-14.5 -19
t-28.5 -15t-46.5 -6.5q-122 0 -228 95t-106 192q0 60 29.5 87.5t89.5 27.5q12 0 25 -2.5t21 -5.5l7 -2q11 -47 93 -156q49 -65 90.5 -108.5t57.5 -54.5z" />
    <glyph glyph-name="Aacute" unicode="&#xc1;" horiz-adv-x="1271" 
d="M893 1124l379 -1116q-52 -28 -113 -28q-81 0 -122.5 32.5t-69.5 116.5l-99 297h-481l-151 -430q-35 -12 -84 -12q-59 0 -95.5 33t-36.5 87q0 32 15 70l432 1133q61 28 149 28q206 0 277 -211zM459 631h344l-160 497h-4zM860 1690q0 -97 -106 -192t-228 -95
q-27 0 -46.5 6.5t-28.5 15.5t-14.5 17.5t-6.5 15.5v6q6 3 18.5 11.5t55.5 53t92 109.5q36 48 59 87t28 54l5 15q26 10 53 10q60 0 89.5 -27t29.5 -87z" />
    <glyph glyph-name="Acircumflex" unicode="&#xc2;" horiz-adv-x="1271" 
d="M893 1124l379 -1116q-52 -28 -113 -28q-81 0 -122.5 32.5t-69.5 116.5l-99 297h-481l-151 -430q-35 -12 -84 -12q-59 0 -95.5 33t-36.5 87q0 32 15 70l432 1133q61 28 149 28q206 0 277 -211zM459 631h344l-160 497h-4zM801 1751l229 -235q-1 -5 -3.5 -12.5t-12.5 -27
t-23.5 -34.5t-37 -27t-52.5 -12q-74 0 -129 63l-86 101q-36 41 -53 41t-53 -41l-86 -101q-55 -63 -129 -63q-29 0 -52.5 11.5t-37 28.5t-23 33.5t-12.5 27.5l-4 12l229 235q82 82 168 82t168 -82z" />
    <glyph glyph-name="Atilde" unicode="&#xc3;" horiz-adv-x="1271" 
d="M893 1124l379 -1116q-52 -28 -113 -28q-81 0 -122.5 32.5t-69.5 116.5l-99 297h-481l-151 -430q-35 -12 -84 -12q-59 0 -95.5 33t-36.5 87q0 32 15 70l432 1133q61 28 149 28q206 0 277 -211zM459 631h344l-160 497h-4zM1065 1620q0 -207 -225 -207q-63 0 -131 24
t-131.5 48t-114.5 24q-60 0 -112.5 -22t-75.5 -44l-23 -22q-37 43 -37 117q0 199 238 199q66 0 137 -25.5t135.5 -50.5t114.5 -25q43 0 79.5 9t57.5 22t35.5 26t19.5 22l6 9q27 -43 27 -104z" />
    <glyph glyph-name="Adieresis" unicode="&#xc4;" horiz-adv-x="1271" 
d="M893 1124l379 -1116q-52 -28 -113 -28q-81 0 -122.5 32.5t-69.5 116.5l-99 297h-481l-151 -430q-35 -12 -84 -12q-59 0 -95.5 33t-36.5 87q0 32 15 70l432 1133q61 28 149 28q206 0 277 -211zM459 631h344l-160 497h-4zM973 1657v-74q0 -149 -154 -149q-26 0 -51.5 7
t-37.5 14l-13 7v74q0 150 153 150q26 0 52 -7t38 -15zM584 1657v-74q0 -149 -154 -149q-26 0 -51.5 7t-38.5 14l-12 7v74q0 150 153 150q26 0 52 -7t39 -15z" />
    <glyph glyph-name="Aring" unicode="&#xc5;" horiz-adv-x="1271" 
d="M893 1124l379 -1116q-52 -28 -113 -28q-81 0 -122.5 32.5t-69.5 116.5l-99 297h-481l-151 -430q-35 -12 -84 -12q-59 0 -95.5 33t-36.5 87q0 32 15 70l432 1133q61 28 149 28q206 0 277 -211zM459 631h344l-160 497h-4zM911 1681q0 -115 -81.5 -196.5t-196.5 -81.5
q-116 0 -197.5 81.5t-81.5 196.5t82 197t197 82t196.5 -81.5t81.5 -197.5zM764 1681q0 54 -38.5 92.5t-92.5 38.5t-92.5 -38.5t-38.5 -92.5t38.5 -92.5t92.5 -38.5t92.5 38.5t38.5 92.5z" />
    <glyph glyph-name="AE" unicode="&#xc6;" horiz-adv-x="1832" 
d="M1772 127q0 -57 -33.5 -92t-100.5 -35h-747v573h-453l-194 -577q-35 -12 -84 -12q-60 0 -94.5 33t-34.5 89q0 30 12 68l293 858q51 147 131 213t225 66h1043q16 -27 16 -78q0 -57 -33 -92t-100 -35h-481v-328h577q17 -27 17 -78q0 -57 -33.5 -92t-100.5 -35h-460v-368
h618q17 -27 17 -78zM508 778h383v328h-152q-73 0 -105.5 -24t-55.5 -93z" />
    <glyph glyph-name="Ccedilla" unicode="&#xc7;" horiz-adv-x="1110" 
d="M1079 1178q0 -25 -4.5 -47t-8.5 -31l-5 -10q-139 32 -342 32q-202 0 -297.5 -98.5t-95.5 -329.5q0 -506 422 -506q92 0 163.5 7t96.5 15l26 7q8 -21 8 -72q0 -39 -14.5 -67t-51.5 -51t-108.5 -35t-177.5 -12q-290 0 -454 187.5t-164 528.5q0 173 43 300.5t123 204.5
t187.5 114t244.5 37q106 0 180.5 -8t119 -21.5t69 -36.5t32.5 -47.5t8 -60.5zM819 -203q0 -86 -66.5 -156.5t-162.5 -70.5q-32 0 -56 8.5t-35.5 20.5t-18.5 24t-8 21l-1 8q3 1 9.5 3.5t23 12.5t31.5 23t32 36.5t27 51.5q13 36 14.5 72t-3.5 53l-5 18q33 17 82 17
q61 0 99 -34.5t38 -107.5z" />
    <glyph glyph-name="Egrave" unicode="&#xc8;" horiz-adv-x="1075" 
d="M1014 127q0 -57 -33 -92t-100 -35h-748v1311h844q16 -27 16 -78q0 -57 -33 -92t-100 -35h-481v-328h577q17 -27 17 -78q0 -57 -33 -92t-100 -35h-461v-368h618q17 -27 17 -78zM799 1464q0 -2 -0.5 -6.5t-6 -15t-14.5 -18.5t-29 -14.5t-47 -6.5q-122 0 -227.5 95
t-105.5 192q0 60 29 87t89 27q12 0 25.5 -2.5t21.5 -5.5l7 -2q10 -47 92 -156q49 -65 90.5 -108.5t58.5 -54.5z" />
    <glyph glyph-name="Eacute" unicode="&#xc9;" horiz-adv-x="1075" 
d="M1014 127q0 -57 -33 -92t-100 -35h-748v1311h844q16 -27 16 -78q0 -57 -33 -92t-100 -35h-481v-328h577q17 -27 17 -78q0 -57 -33 -92t-100 -35h-461v-368h618q17 -27 17 -78zM809 1690q0 -97 -106 -192t-228 -95q-27 0 -46.5 6.5t-28.5 15.5t-14.5 17.5t-5.5 15.5l-1 6
q6 3 18.5 11.5t55.5 53t92 109.5q36 48 59 87t28 54l5 15q26 10 53 10q60 0 89.5 -27t29.5 -87z" />
    <glyph glyph-name="Ecircumflex" unicode="&#xca;" horiz-adv-x="1075" 
d="M1014 127q0 -57 -33 -92t-100 -35h-748v1311h844q16 -27 16 -78q0 -57 -33 -92t-100 -35h-481v-328h577q17 -27 17 -78q0 -57 -33 -92t-100 -35h-461v-368h618q17 -27 17 -78zM737 1751l230 -235q-1 -5 -3.5 -12.5t-12.5 -27t-23.5 -34.5t-37 -27t-52.5 -12
q-74 0 -129 63l-86 101q-36 41 -54 41q-17 0 -53 -41l-86 -101q-55 -63 -129 -63q-29 0 -52.5 11.5t-37 28.5t-23 33.5t-12.5 27.5l-4 12l229 235q82 82 168 82t168 -82z" />
    <glyph glyph-name="Edieresis" unicode="&#xcb;" horiz-adv-x="1075" 
d="M1014 127q0 -57 -33 -92t-100 -35h-748v1311h844q16 -27 16 -78q0 -57 -33 -92t-100 -35h-481v-328h577q17 -27 17 -78q0 -57 -33 -92t-100 -35h-461v-368h618q17 -27 17 -78zM897 1657v-74q0 -149 -154 -149q-26 0 -51.5 7t-37.5 14l-13 7v74q0 150 154 150
q26 0 51.5 -7t37.5 -15zM508 1657v-74q0 -149 -154 -149q-26 0 -51.5 7t-38.5 14l-12 7v74q0 150 154 150q26 0 51.5 -7t38.5 -15z" />
    <glyph glyph-name="Igrave" unicode="&#xcc;" horiz-adv-x="512" 
d="M383 1190v-1178q-43 -28 -109 -28q-137 0 -137 149v1178q43 28 109 28q137 0 137 -149zM434 1464q0 -2 -0.5 -6.5t-6 -15t-14.5 -18.5t-28.5 -14.5t-46.5 -6.5q-122 0 -228 95t-106 192q0 60 29.5 87t89.5 27q12 0 25.5 -2.5t20.5 -5.5l7 -2q10 -47 92 -156
q49 -65 90.5 -108.5t58.5 -54.5z" />
    <glyph glyph-name="Iacute" unicode="&#xcd;" horiz-adv-x="512" 
d="M379 1190v-1178q-43 -28 -109 -28q-137 0 -137 149v1178q43 28 109 28q137 0 137 -149zM492 1690q0 -97 -106 -192t-228 -95q-43 0 -67 15.5t-27 30.5l-3 15q6 3 18.5 11.5t55.5 53t92 109.5q36 48 59 87t28 54l5 15q27 10 54 10q60 0 89.5 -27t29.5 -87z" />
    <glyph glyph-name="Icircumflex" unicode="&#xce;" horiz-adv-x="512" 
d="M383 1190v-1178q-43 -28 -109 -28q-137 0 -137 149v1178q43 28 109 28q137 0 137 -149zM418 1751l229 -235q-1 -5 -3.5 -12.5t-12.5 -27t-23.5 -34.5t-37 -27t-52.5 -12q-74 0 -129 63l-86 101q-36 41 -53 41t-53 -41l-86 -101q-55 -63 -129 -63q-29 0 -52.5 11.5
t-37 28.5t-23 33.5t-13.5 27.5l-3 12l229 235q82 82 168 82t168 -82z" />
    <glyph glyph-name="Idieresis" unicode="&#xcf;" horiz-adv-x="512" 
d="M381 1190v-1178q-43 -28 -109 -28q-137 0 -137 149v1178q43 28 109 28q137 0 137 -149zM586 1657v-74q0 -149 -154 -149q-26 0 -51.5 7t-38.5 14l-12 7v74q0 150 153 150q26 0 52 -7t39 -15zM197 1657v-74q0 -149 -154 -149q-26 0 -51.5 7t-37.5 14l-13 7v74
q0 150 153 150q26 0 52 -7t38 -15z" />
    <glyph glyph-name="Ntilde" unicode="&#xd1;" horiz-adv-x="1374" 
d="M1241 1190l-6 -1157q-6 -5 -18 -13.5t-50.5 -22t-79.5 -13.5q-179 0 -270 174l-455 876h-4l21 -1022q-43 -28 -109 -28q-137 0 -137 149v1157q8 5 21.5 13.5t55.5 22t83 13.5q93 0 153.5 -40t104.5 -125l457 -887h4l-17 1024q43 28 109 28q137 0 137 -149zM1116 1620
q0 -207 -225 -207q-63 0 -131 24t-131.5 48t-114.5 24q-38 0 -73.5 -9t-59.5 -22t-42.5 -26t-26.5 -22l-9 -9q-37 43 -37 117q0 199 238 199q66 0 137 -25.5t135.5 -50.5t114.5 -25q43 0 79.5 9t57.5 22t36 26t20 22l6 9q26 -43 26 -104z" />
    <glyph glyph-name="Ograve" unicode="&#xd2;" 
d="M1280 696q0 -340 -164.5 -528t-439.5 -188q-282 0 -443 187t-161 529q0 656 602 656q144 0 253.5 -35.5t189.5 -112t121.5 -204t41.5 -304.5zM1026 694q0 223 -94 334t-258 111q-157 0 -252.5 -112t-95.5 -333q0 -248 99.5 -381t250.5 -133q149 0 249.5 133.5
t100.5 380.5zM901 1464q0 -2 -0.5 -6.5t-6 -15t-14.5 -18.5t-28.5 -14.5t-46.5 -6.5q-122 0 -228 95t-106 192q0 60 29.5 87t89.5 27q12 0 25 -2.5t21 -5.5l7 -2q10 -47 92 -156q49 -65 90.5 -108.5t58.5 -54.5z" />
    <glyph glyph-name="Oacute" unicode="&#xd3;" 
d="M1280 696q0 -340 -164.5 -528t-439.5 -188q-282 0 -443 187t-161 529q0 656 602 656q144 0 253.5 -35.5t189.5 -112t121.5 -204t41.5 -304.5zM1026 694q0 223 -94 334t-258 111q-157 0 -252.5 -112t-95.5 -333q0 -248 99.5 -381t250.5 -133q149 0 249.5 133.5
t100.5 380.5zM922 1690q0 -97 -106 -192t-228 -95q-27 0 -46.5 6.5t-28.5 15.5t-14.5 17.5t-6.5 15.5v6q6 3 18 11.5t55 53t92 109.5q36 48 59.5 87t28.5 54l5 15q26 10 53 10q60 0 89.5 -27t29.5 -87z" />
    <glyph glyph-name="Ocircumflex" unicode="&#xd4;" 
d="M1280 696q0 -340 -164.5 -528t-439.5 -188q-282 0 -443 187t-161 529q0 656 602 656q144 0 253.5 -35.5t189.5 -112t121.5 -204t41.5 -304.5zM1026 694q0 223 -94 334t-258 111q-157 0 -252.5 -112t-95.5 -333q0 -248 99.5 -381t250.5 -133q149 0 249.5 133.5
t100.5 380.5zM842 1751l229 -235q-1 -5 -3.5 -12.5t-12.5 -27t-23.5 -34.5t-37 -27t-52.5 -12q-74 0 -129 63l-86 101q-36 41 -53 41t-53 -41l-86 -101q-55 -63 -129 -63q-45 0 -77.5 28.5t-42.5 56.5l-10 28l230 235q82 82 168 82t168 -82z" />
    <glyph glyph-name="Otilde" unicode="&#xd5;" 
d="M1280 696q0 -340 -164.5 -528t-439.5 -188q-282 0 -443 187t-161 529q0 656 602 656q144 0 253.5 -35.5t189.5 -112t121.5 -204t41.5 -304.5zM1026 694q0 223 -94 334t-258 111q-157 0 -252.5 -112t-95.5 -333q0 -248 99.5 -381t250.5 -133q149 0 249.5 133.5
t100.5 380.5zM1116 1620q0 -207 -225 -207q-63 0 -131 24t-131.5 48t-114.5 24q-38 0 -73.5 -9t-59.5 -22t-42.5 -26t-26.5 -22l-9 -9q-37 43 -37 117q0 199 238 199q66 0 137 -25.5t135.5 -50.5t114.5 -25q43 0 79.5 9t57.5 22t36 26t20 22l6 9q26 -43 26 -104z" />
    <glyph glyph-name="Odieresis" unicode="&#xd6;" 
d="M1280 696q0 -340 -164.5 -528t-439.5 -188q-282 0 -443 187t-161 529q0 656 602 656q144 0 253.5 -35.5t189.5 -112t121.5 -204t41.5 -304.5zM1026 694q0 223 -94 334t-258 111q-157 0 -252.5 -112t-95.5 -333q0 -248 99.5 -381t250.5 -133q149 0 249.5 133.5
t100.5 380.5zM1014 1657v-74q0 -149 -154 -149q-26 0 -51.5 7t-38.5 14l-12 7v74q0 150 153 150q26 0 52 -7t39 -15zM625 1657v-74q0 -149 -154 -149q-26 0 -51.5 7t-37.5 14l-13 7v74q0 150 153 150q26 0 52 -7t38 -15z" />
    <glyph glyph-name="multiply" unicode="&#xd7;" horiz-adv-x="1644" 
d="M967 594l391 -391q-2 -4 -5 -11.5t-15 -26.5t-26 -33t-37.5 -26t-49.5 -12q-48 0 -95 47l-307 308l-391 -392q-4 2 -11.5 5t-26 15t-33 26t-26 37.5t-11.5 49.5q0 50 45 95l309 309l-391 391q2 4 5 11.5t15 26.5t26 33t37.5 26t49.5 12q47 0 94 -47l309 -308l391 391
q4 -2 11.5 -5t26.5 -15t33 -26t26 -37.5t12 -49.5q0 -47 -47 -94z" />
    <glyph glyph-name="Oslash" unicode="&#xd8;" 
d="M1303 1341q0 -47 -35 -98l-88 -117q100 -155 100 -430q0 -340 -164.5 -528t-439.5 -188q-168 0 -297 69l-135 -182q-13 -2 -25 -2q-62 0 -100.5 36.5t-38.5 88.5q0 47 35 98l88 119q-131 186 -131 489q0 656 602 656q199 0 332 -68l133 180q12 2 24 2q62 0 101 -36.5
t39 -88.5zM367 426l493 666q-77 47 -186 47q-157 0 -252.5 -112t-95.5 -333q0 -156 41 -268zM1026 694q0 107 -22 193l-492 -660q74 -47 164 -47q149 0 249.5 133.5t100.5 380.5z" />
    <glyph glyph-name="Ugrave" unicode="&#xd9;" 
d="M1219 1190v-729q0 -215 -136.5 -348t-396.5 -133q-136 0 -242.5 36.5t-173.5 102t-102 152.5t-35 190v850q43 28 109 28q137 0 137 -149v-723q0 -131 82.5 -209t224.5 -78q137 0 212 77t75 210v844q42 28 108 28q138 0 138 -149zM860 1464q0 -2 -0.5 -6.5t-6 -15
t-14.5 -18.5t-28.5 -14.5t-46.5 -6.5q-122 0 -228 95t-106 192q0 60 29.5 87t89.5 27q12 0 25.5 -2.5t20.5 -5.5l7 -2q10 -47 92 -156q49 -65 90.5 -108.5t58.5 -54.5z" />
    <glyph glyph-name="Uacute" unicode="&#xda;" 
d="M1219 1190v-729q0 -215 -136.5 -348t-396.5 -133q-136 0 -242.5 36.5t-173.5 102t-102 152.5t-35 190v850q43 28 109 28q137 0 137 -149v-723q0 -131 82.5 -209t224.5 -78q137 0 212 77t75 210v844q42 28 108 28q138 0 138 -149zM901 1690q0 -97 -106 -192t-228 -95
q-27 0 -46.5 6.5t-28.5 15.5t-14.5 17.5t-5.5 15.5l-1 6q6 3 18.5 11.5t55.5 53t92 109.5q36 48 59 87t28 54l5 15q26 10 53 10q60 0 89.5 -27t29.5 -87z" />
    <glyph glyph-name="Ucircumflex" unicode="&#xdb;" 
d="M1219 1190v-729q0 -215 -136.5 -348t-396.5 -133q-136 0 -242.5 36.5t-173.5 102t-102 152.5t-35 190v850q43 28 109 28q137 0 137 -149v-723q0 -131 82.5 -209t224.5 -78q137 0 212 77t75 210v844q42 28 108 28q138 0 138 -149zM848 1751l229 -235q-1 -5 -3.5 -12.5
t-12.5 -27t-23.5 -34.5t-37 -27t-52.5 -12q-74 0 -129 63l-86 101q-36 41 -53 41t-53 -41l-86 -101q-55 -63 -129 -63q-29 0 -52.5 11.5t-37 28.5t-23 33.5t-13.5 27.5l-3 12l229 235q82 82 168 82t168 -82z" />
    <glyph glyph-name="Udieresis" unicode="&#xdc;" 
d="M1219 1190v-729q0 -215 -136.5 -348t-396.5 -133q-136 0 -242.5 36.5t-173.5 102t-102 152.5t-35 190v850q43 28 109 28q137 0 137 -149v-723q0 -131 82.5 -209t224.5 -78q137 0 212 77t75 210v844q42 28 108 28q138 0 138 -149zM1008 1657v-74q0 -149 -154 -149
q-26 0 -51.5 7t-38.5 14l-12 7v74q0 150 153 150q26 0 52 -7t39 -15zM618 1657v-74q0 -149 -153 -149q-26 0 -52 7t-39 14l-12 7v74q0 150 154 150q26 0 51.5 -7t38.5 -15z" />
    <glyph glyph-name="Yacute" unicode="&#xdd;" horiz-adv-x="1220" 
d="M1200 1227q0 -54 -33 -99l-422 -546v-570q-42 -28 -108 -28q-137 0 -137 149v451l-510 706q5 5 15 13.5t44 22t72 13.5q87 0 135.5 -23.5t89.5 -86.5l279 -426h4l389 547q23 2 35 2q67 0 107 -36t40 -89zM881 1690q0 -97 -106 -192t-228 -95q-27 0 -46.5 6.5t-28.5 15.5
t-14.5 17.5t-5.5 15.5l-1 6q6 3 18 11.5t55 53t92 109.5q36 48 59.5 87t28.5 54l5 15q26 10 53 10q60 0 89.5 -27t29.5 -87z" />
    <glyph glyph-name="germandbls" unicode="&#xdf;" horiz-adv-x="1067" 
d="M1006 438q0 -215 -109.5 -336.5t-290.5 -121.5q-103 0 -155 39t-52 106q0 22 2.5 39t5.5 23l3 6q37 -19 139 -19q99 0 160 63.5t61 186.5q0 114 -52.5 172.5t-176.5 58.5q-69 0 -102 32.5t-33 88.5q0 23 4 42t8 26l4 8q27 -2 72 -2q77 2 115 56t38 173q0 219 -158 219
q-79 0 -115 -42t-36 -134v-1519q-43 -29 -102 -29q-134 0 -134 150v1419q0 167 102 261.5t285 94.5t293.5 -101t110.5 -276q0 -135 -57.5 -220.5t-163.5 -113.5v-4q150 -5 242 -90t92 -256z" />
    <glyph glyph-name="agrave" unicode="&#xe0;" horiz-adv-x="972" 
d="M860 709v-697q-43 -28 -102 -28q-133 0 -133 149v23h-4q-32 -76 -108.5 -126t-172.5 -50q-49 0 -95 15t-87 46.5t-65.5 88.5t-24.5 132q0 84 30.5 145.5t83 95t112 49t128.5 15.5q100 0 203 -20v121q0 75 -50.5 105t-189.5 30q-65 0 -128.5 -7.5t-94.5 -15.5l-31 -8
q-14 25 -14 84q0 87 86 127.5t278 40.5q87 0 153 -15t118.5 -50t80 -97.5t27.5 -152.5zM625 369v43q-67 16 -148 16q-89 0 -131.5 -32.5t-42.5 -100.5q0 -57 32 -88t87 -31q88 0 145.5 56.5t57.5 136.5zM717 1198q0 -2 -0.5 -6.5t-6 -15t-14.5 -18.5t-28.5 -14.5t-46.5 -6.5
q-122 0 -228 94.5t-106 191.5q0 60 29.5 87.5t89.5 27.5q12 0 25 -2.5t21 -5.5l7 -2q10 -47 92 -156q49 -65 90.5 -108.5t58.5 -54.5z" />
    <glyph glyph-name="aacute" unicode="&#xe1;" horiz-adv-x="972" 
d="M860 709v-697q-43 -28 -102 -28q-133 0 -133 149v23h-4q-32 -76 -108.5 -126t-172.5 -50q-49 0 -95 15t-87 46.5t-65.5 88.5t-24.5 132q0 84 30.5 145.5t83 95t112 49t128.5 15.5q100 0 203 -20v121q0 75 -50.5 105t-189.5 30q-65 0 -128.5 -7.5t-94.5 -15.5l-31 -8
q-14 25 -14 84q0 87 86 127.5t278 40.5q87 0 153 -15t118.5 -50t80 -97.5t27.5 -152.5zM625 369v43q-67 16 -148 16q-89 0 -131.5 -32.5t-42.5 -100.5q0 -57 32 -88t87 -31q88 0 145.5 56.5t57.5 136.5zM700 1423q0 -97 -105.5 -191.5t-227.5 -94.5q-43 0 -67 15.5t-27 30.5
l-3 15q6 3 18.5 11.5t55.5 53t92 109.5q36 48 59 87t28 54l5 15q27 10 54 10q60 0 89 -27.5t29 -87.5z" />
    <glyph glyph-name="acircumflex" unicode="&#xe2;" horiz-adv-x="999" 
d="M860 709v-697q-43 -28 -102 -28q-133 0 -133 149v23h-4q-32 -76 -108.5 -126t-172.5 -50q-49 0 -95 15t-87 46.5t-65.5 88.5t-24.5 132q0 84 30.5 145.5t83 95t112 49t128.5 15.5q100 0 203 -20v121q0 75 -50.5 105t-189.5 30q-65 0 -128.5 -7.5t-94.5 -15.5l-31 -8
q-14 25 -14 84q0 87 86 127.5t278 40.5q87 0 153 -15t118.5 -50t80 -97.5t27.5 -152.5zM625 369v43q-67 16 -148 16q-89 0 -131.5 -32.5t-42.5 -100.5q0 -57 32 -88t87 -31q88 0 145.5 56.5t57.5 136.5zM657 1485l230 -236q-1 -5 -3.5 -12.5t-12.5 -26.5t-23.5 -34t-37 -27
t-52.5 -12q-74 0 -129 63l-86 100q-36 41 -54 41q-17 0 -53 -41l-86 -100q-55 -63 -129 -63q-29 0 -52.5 11.5t-37 28t-23 33t-12.5 28.5l-4 11l230 236q44 43 82 62.5t85 19.5q86 0 168 -82z" />
    <glyph glyph-name="atilde" unicode="&#xe3;" horiz-adv-x="1042" 
d="M860 709v-697q-43 -28 -102 -28q-133 0 -133 149v23h-4q-32 -76 -108.5 -126t-172.5 -50q-49 0 -95 15t-87 46.5t-65.5 88.5t-24.5 132q0 84 30.5 145.5t83 95t112 49t128.5 15.5q100 0 203 -20v121q0 75 -50.5 105t-189.5 30q-65 0 -128.5 -7.5t-94.5 -15.5l-31 -8
q-14 25 -14 84q0 87 86 127.5t278 40.5q87 0 153 -15t118.5 -50t80 -97.5t27.5 -152.5zM625 369v43q-67 16 -148 16q-89 0 -131.5 -32.5t-42.5 -100.5q0 -57 32 -88t87 -31q88 0 145.5 56.5t57.5 136.5zM930 1354q0 -207 -225 -207q-63 0 -131 24t-131.5 48t-114.5 24
q-60 0 -112.5 -22t-75.5 -44l-23 -22q-37 43 -37 117q0 198 237 198q66 0 137 -25t136 -50t115 -25q43 0 79.5 9t57.5 22t35.5 26t20.5 22l5 9q27 -43 27 -104z" />
    <glyph glyph-name="adieresis" unicode="&#xe4;" horiz-adv-x="972" 
d="M860 709v-697q-43 -28 -102 -28q-133 0 -133 149v23h-4q-32 -76 -108.5 -126t-172.5 -50q-49 0 -95 15t-87 46.5t-65.5 88.5t-24.5 132q0 84 30.5 145.5t83 95t112 49t128.5 15.5q100 0 203 -20v121q0 75 -50.5 105t-189.5 30q-65 0 -128.5 -7.5t-94.5 -15.5l-31 -8
q-14 25 -14 84q0 87 86 127.5t278 40.5q87 0 153 -15t118.5 -50t80 -97.5t27.5 -152.5zM625 369v43q-67 16 -148 16q-89 0 -131.5 -32.5t-42.5 -100.5q0 -57 32 -88t87 -31q88 0 145.5 56.5t57.5 136.5zM809 1391v-74q0 -150 -154 -150q-26 0 -51.5 7.5t-37.5 14.5l-13 7v74
q0 149 154 149q26 0 51.5 -7t37.5 -14zM420 1391v-74q0 -150 -154 -150q-26 0 -51.5 7.5t-38.5 14.5l-12 7v74q0 149 153 149q26 0 52 -7t39 -14z" />
    <glyph glyph-name="aring" unicode="&#xe5;" horiz-adv-x="972" 
d="M860 709v-697q-43 -28 -102 -28q-133 0 -133 149v23h-4q-32 -76 -108.5 -126t-172.5 -50q-49 0 -95 15t-87 46.5t-65.5 88.5t-24.5 132q0 84 30.5 145.5t83 95t112 49t128.5 15.5q100 0 203 -20v121q0 75 -50.5 105t-189.5 30q-65 0 -128.5 -7.5t-94.5 -15.5l-31 -8
q-14 25 -14 84q0 87 86 127.5t278 40.5q87 0 153 -15t118.5 -50t80 -97.5t27.5 -152.5zM625 369v43q-67 16 -148 16q-89 0 -131.5 -32.5t-42.5 -100.5q0 -57 32 -88t87 -31q88 0 145.5 56.5t57.5 136.5zM762 1415q0 -115 -81.5 -196.5t-197.5 -81.5q-115 0 -196.5 81.5
t-81.5 196.5q0 116 81.5 197.5t196.5 81.5t197 -82t82 -197zM614 1415q0 54 -38.5 92.5t-92.5 38.5t-92.5 -38.5t-38.5 -92.5t38.5 -92.5t92.5 -38.5t92.5 38.5t38.5 92.5z" />
    <glyph glyph-name="ae" unicode="&#xe6;" horiz-adv-x="1507" 
d="M1466 653q0 -101 -20.5 -132.5t-99.5 -31.5h-482q1 -165 72 -241t211 -76q58 0 108 3t71 6l20 3q8 -16 8 -67q0 -71 -65 -104t-199 -33q-128 0 -224 51t-151 143h-2q-33 -79 -128.5 -136.5t-219.5 -57.5q-55 0 -105 15t-93.5 46.5t-69 88t-25.5 132.5q0 84 30.5 145.5
t83 95t112 49t128.5 15.5q100 0 203 -20v121q0 75 -50.5 105t-189.5 30q-65 0 -128.5 -7.5t-94.5 -15.5l-31 -8q-14 25 -14 84q0 87 86 127.5t278 40.5q61 0 115 -9.5t87 -23t57 -27t34 -22.5l10 -10q4 4 11 10t32 22t54.5 28t78 22t101.5 10q187 0 294 -100.5t107 -270.5z
M872 643h367q7 79 -34.5 132.5t-133.5 53.5q-94 0 -144 -49.5t-55 -136.5zM629 369v43q-67 16 -148 16q-89 0 -131.5 -32.5t-42.5 -100.5q0 -57 32 -88t87 -31q88 0 145.5 56.5t57.5 136.5z" />
    <glyph glyph-name="ccedilla" unicode="&#xe7;" horiz-adv-x="874" 
d="M834 868q0 -28 -5 -49t-9 -28l-5 -7q-135 19 -254 19q-126 0 -191 -66t-65 -207q0 -196 71 -277t214 -81q65 0 114.5 3t66.5 6l17 3q9 -16 9 -67q0 -71 -65.5 -104t-199.5 -33q-151 0 -259 73t-160 196t-52 283q0 241 125 366.5t326 125.5q185 0 253.5 -35.5t68.5 -120.5
zM651 -203q0 -86 -66.5 -156.5t-162.5 -70.5q-32 0 -56 8.5t-35.5 20.5t-18.5 24t-8 21l-1 8q3 1 9.5 3.5t23 12.5t31.5 23t32 36.5t27 51.5q13 36 14.5 72t-3.5 53l-5 18q33 17 82 17q61 0 99 -34.5t38 -107.5z" />
    <glyph glyph-name="egrave" unicode="&#xe8;" horiz-adv-x="950" 
d="M909 653q0 -100 -21 -130.5t-100 -30.5h-481q1 -167 72 -243.5t211 -76.5q58 0 107.5 3t70.5 6l20 3q9 -16 9 -67q0 -71 -65.5 -104t-199.5 -33q-151 0 -259 73t-160 196t-52 283q0 122 33.5 216.5t93.5 154.5t141 90.5t179 30.5q187 0 294 -100.5t107 -270.5zM315 645
h367q7 79 -34.5 131.5t-133.5 52.5q-94 0 -144 -48.5t-55 -135.5zM707 1198q0 -2 -0.5 -6.5t-6 -15t-14.5 -18.5t-29 -14.5t-47 -6.5q-122 0 -228 94.5t-106 191.5q0 60 29.5 87.5t89.5 27.5q12 0 25.5 -2.5t21.5 -5.5l7 -2q10 -47 92 -156q49 -65 90.5 -108.5t58.5 -54.5z
" />
    <glyph glyph-name="eacute" unicode="&#xe9;" horiz-adv-x="950" 
d="M909 653q0 -100 -21 -130.5t-100 -30.5h-481q1 -167 72 -243.5t211 -76.5q58 0 107.5 3t70.5 6l20 3q9 -16 9 -67q0 -71 -65.5 -104t-199.5 -33q-151 0 -259 73t-160 196t-52 283q0 122 33.5 216.5t93.5 154.5t141 90.5t179 30.5q187 0 294 -100.5t107 -270.5zM315 645
h367q7 79 -34.5 131.5t-133.5 52.5q-94 0 -144 -48.5t-55 -135.5zM748 1423q0 -97 -106 -191.5t-228 -94.5q-43 0 -67 15.5t-27 30.5l-3 15q6 3 18.5 11.5t55.5 53t92 109.5q36 48 59 87t28 54l5 15q27 10 54 10q60 0 89.5 -27.5t29.5 -87.5z" />
    <glyph glyph-name="ecircumflex" unicode="&#xea;" horiz-adv-x="950" 
d="M909 653q0 -100 -21 -130.5t-100 -30.5h-481q1 -167 72 -243.5t211 -76.5q58 0 107.5 3t70.5 6l20 3q9 -16 9 -67q0 -71 -65.5 -104t-199.5 -33q-151 0 -259 73t-160 196t-52 283q0 122 33.5 216.5t93.5 154.5t141 90.5t179 30.5q187 0 294 -100.5t107 -270.5zM315 645
h367q7 79 -34.5 131.5t-133.5 52.5q-94 0 -144 -48.5t-55 -135.5zM664 1485l229 -236q-1 -5 -3.5 -12.5t-12.5 -26.5t-23.5 -34t-37 -27t-52.5 -12q-74 0 -129 63l-86 100q-36 41 -53 41q-18 0 -54 -41l-86 -100q-55 -63 -129 -63q-29 0 -52.5 11.5t-37 28t-23 33
t-12.5 28.5l-4 11l230 236q82 82 168 82t168 -82z" />
    <glyph glyph-name="edieresis" unicode="&#xeb;" horiz-adv-x="950" 
d="M909 653q0 -100 -21 -130.5t-100 -30.5h-481q1 -167 72 -243.5t211 -76.5q58 0 107.5 3t70.5 6l20 3q9 -16 9 -67q0 -71 -65.5 -104t-199.5 -33q-151 0 -259 73t-160 196t-52 283q0 122 33.5 216.5t93.5 154.5t141 90.5t179 30.5q187 0 294 -100.5t107 -270.5zM315 645
h367q7 79 -34.5 131.5t-133.5 52.5q-94 0 -144 -48.5t-55 -135.5zM829 1391v-74q0 -150 -153 -150q-26 0 -52 7.5t-38 14.5l-13 7v74q0 149 154 149q26 0 51.5 -7t37.5 -14zM440 1391v-74q0 -150 -153 -150q-26 0 -52 7.5t-39 14.5l-12 7v74q0 149 154 149q26 0 51.5 -7
t38.5 -14z" />
    <glyph glyph-name="igrave" unicode="&#xec;" horiz-adv-x="495" 
d="M463 113q0 -56 -41.5 -92.5t-120.5 -36.5q-98 0 -144 56t-46 173v770q43 29 102 29q133 0 133 -150v-616q0 -94 76 -94l33 2q8 -14 8 -41zM530 1198q0 -2 -0.5 -6.5t-6 -15t-14.5 -18.5t-28.5 -14.5t-46.5 -6.5q-122 0 -228 94.5t-106 191.5q0 60 29.5 87.5t89.5 27.5
q12 0 25.5 -2.5t20.5 -5.5l7 -2q11 -47 93 -156q49 -65 90.5 -108.5t58.5 -54.5z" />
    <glyph glyph-name="iacute" unicode="&#xed;" horiz-adv-x="495" 
d="M467 113q0 -56 -41.5 -92.5t-120.5 -36.5q-98 0 -144 56t-46 173v770q43 29 102 29q133 0 133 -150v-616q0 -94 76 -94l33 2q8 -14 8 -41zM473 1423q0 -97 -106 -191.5t-228 -94.5q-27 0 -46.5 6.5t-28.5 15.5t-14.5 17.5t-5.5 15.5l-1 6q6 3 18.5 11.5t55.5 53t92 109.5
q36 48 59 87t28 54l5 15q26 10 53 10q60 0 89.5 -27.5t29.5 -87.5z" />
    <glyph glyph-name="icircumflex" unicode="&#xee;" horiz-adv-x="495" 
d="M461 113q0 -56 -41.5 -92.5t-120.5 -36.5q-98 0 -144 56t-46 173v770q43 29 102 29q133 0 133 -150v-616q0 -94 76 -94l33 2q8 -14 8 -41zM391 1485l230 -236q-1 -5 -3.5 -12.5t-12.5 -26.5t-23.5 -34t-37 -27t-52.5 -12q-75 0 -130 63l-86 100q-36 41 -53 41t-53 -41
l-86 -100q-55 -63 -129 -63q-29 0 -52.5 11.5t-37 28t-23 33t-12.5 28.5l-4 11l229 236q82 82 168 82t168 -82z" />
    <glyph glyph-name="idieresis" unicode="&#xef;" horiz-adv-x="495" 
d="M465 113q0 -56 -41.5 -92.5t-120.5 -36.5q-98 0 -144 56t-46 173v770q43 29 102 29q133 0 133 -150v-616q0 -94 76 -94l33 2q8 -14 8 -41zM563 1391v-74q0 -150 -153 -150q-26 0 -52 7.5t-38 14.5l-13 7v74q0 149 154 149q26 0 51.5 -7t37.5 -14zM174 1391v-74
q0 -150 -154 -150q-26 0 -51.5 7.5t-38.5 14.5l-12 7v74q0 149 154 149q26 0 51.5 -7t38.5 -14z" />
    <glyph glyph-name="ntilde" unicode="&#xf1;" horiz-adv-x="1105" 
d="M993 618v-606q-43 -28 -102 -28q-133 0 -133 149v461q0 130 -42.5 181.5t-137.5 51.5q-105 0 -167.5 -79t-62.5 -211v-525q-43 -28 -102 -28q-133 0 -133 149v850q43 29 102 29q133 0 133 -150v-14h4q31 74 110.5 125t182.5 51q181 0 264.5 -92.5t83.5 -313.5zM985 1354
q0 -207 -225 -207q-63 0 -131 24t-131.5 48t-114.5 24q-60 0 -112.5 -22t-75.5 -44l-23 -22q-37 43 -37 117q0 198 238 198q66 0 137 -25t135.5 -50t114.5 -25q43 0 79.5 9t57.5 22t35.5 26t19.5 22l6 9q27 -43 27 -104z" />
    <glyph glyph-name="ograve" unicode="&#xf2;" horiz-adv-x="1064" 
d="M1004 532q0 -158 -56 -282.5t-164.5 -197t-251.5 -72.5q-116 0 -207 41.5t-148 116.5t-86.5 174.5t-29.5 219.5q0 244 126 368t343 124q474 0 474 -492zM760 530q0 144 -62 216.5t-168 72.5q-102 0 -163.5 -73t-61.5 -216q0 -184 60 -271t167 -87q106 0 167 87t61 271z
M758 1198q0 -2 -0.5 -6.5t-6 -15t-14.5 -18.5t-28.5 -14.5t-46.5 -6.5q-122 0 -228 94.5t-106 191.5q0 60 29 87.5t89 27.5q12 0 25.5 -2.5t20.5 -5.5l8 -2q10 -47 92 -156q49 -65 90.5 -108.5t58.5 -54.5z" />
    <glyph glyph-name="oacute" unicode="&#xf3;" horiz-adv-x="1064" 
d="M1004 532q0 -158 -56 -282.5t-164.5 -197t-251.5 -72.5q-116 0 -207 41.5t-148 116.5t-86.5 174.5t-29.5 219.5q0 244 126 368t343 124q474 0 474 -492zM760 530q0 144 -62 216.5t-168 72.5q-102 0 -163.5 -73t-61.5 -216q0 -184 60 -271t167 -87q106 0 167 87t61 271z
M778 1423q0 -97 -106 -191.5t-228 -94.5q-27 0 -46.5 6.5t-28.5 15.5t-14.5 17.5t-6.5 15.5v6q6 3 18.5 11.5t55.5 53t92 109.5q36 48 59 87t28 54l5 15q26 10 53 10q60 0 89.5 -27.5t29.5 -87.5z" />
    <glyph glyph-name="ocircumflex" unicode="&#xf4;" horiz-adv-x="1064" 
d="M1004 532q0 -158 -56 -282.5t-164.5 -197t-251.5 -72.5q-116 0 -207 41.5t-148 116.5t-86.5 174.5t-29.5 219.5q0 244 126 368t343 124q474 0 474 -492zM760 530q0 144 -62 216.5t-168 72.5q-102 0 -163.5 -73t-61.5 -216q0 -184 60 -271t167 -87q106 0 167 87t61 271z
M692 1485l230 -236q-1 -5 -3.5 -12.5t-12.5 -26.5t-23.5 -34t-37 -27t-52.5 -12q-74 0 -129 63l-86 100q-36 41 -54 41q-17 0 -53 -41l-86 -100q-55 -63 -129 -63q-29 0 -52.5 11.5t-37 28t-23 33t-13.5 28.5l-3 11l229 236q82 82 168 82t168 -82z" />
    <glyph glyph-name="otilde" unicode="&#xf5;" horiz-adv-x="1064" 
d="M1004 532q0 -158 -56 -282.5t-164.5 -197t-251.5 -72.5q-116 0 -207 41.5t-148 116.5t-86.5 174.5t-29.5 219.5q0 244 126 368t343 124q474 0 474 -492zM760 530q0 144 -62 216.5t-168 72.5q-102 0 -163.5 -73t-61.5 -216q0 -184 60 -271t167 -87q106 0 167 87t61 271z
M963 1354q0 -101 -56.5 -154t-169.5 -53q-63 0 -131 24t-131.5 48t-114.5 24q-38 0 -73.5 -9t-59 -22t-42 -26t-27.5 -22l-8 -9q-37 43 -37 117q0 198 237 198q66 0 137 -25t135.5 -50t114.5 -25q43 0 79.5 9t57.5 22t36 26t20 22l6 9q27 -43 27 -104z" />
    <glyph glyph-name="odieresis" unicode="&#xf6;" horiz-adv-x="1064" 
d="M1004 532q0 -158 -56 -282.5t-164.5 -197t-251.5 -72.5q-116 0 -207 41.5t-148 116.5t-86.5 174.5t-29.5 219.5q0 244 126 368t343 124q474 0 474 -492zM760 530q0 144 -62 216.5t-168 72.5q-102 0 -163.5 -73t-61.5 -216q0 -184 60 -271t167 -87q106 0 167 87t61 271z
M858 1391v-74q0 -150 -153 -150q-26 0 -52 7.5t-39 14.5l-12 7v74q0 149 154 149q26 0 51.5 -7t38.5 -14zM469 1391v-74q0 -150 -154 -150q-26 0 -51.5 7.5t-37.5 14.5l-13 7v74q0 149 154 149q26 0 51.5 -7t37.5 -14z" />
    <glyph glyph-name="divide" unicode="&#xf7;" horiz-adv-x="1597" 
d="M936 1167v-114q0 -78 -45 -114t-119 -36q-29 0 -57.5 7.5t-42.5 14.5l-13 7v115q0 78 45 113.5t119 35.5q29 0 57.5 -7t41.5 -15zM1413 618q0 -57 -33 -91.5t-100 -34.5h-1079q-17 26 -17 77q0 57 33 92t100 35h1080q16 -27 16 -78zM936 248v-115q0 -78 -45 -113.5
t-119 -35.5q-29 0 -57.5 7t-42.5 14l-13 7v115q0 78 45 113.5t119 35.5q29 0 57.5 -7t41.5 -14z" />
    <glyph glyph-name="oslash" unicode="&#xf8;" horiz-adv-x="1064" 
d="M1032 1014q0 -48 -35 -99l-61 -81q68 -115 68 -302q0 -158 -56 -282.5t-164.5 -197t-251.5 -72.5q-112 0 -202 38l-113 -151q-6 -2 -14 -2q-62 0 -101 36.5t-39 88.5q0 47 35 98l60 78q-97 141 -97 366q0 244 126 368t343 124q134 0 234 -41l115 154q6 2 14 2
q62 0 100.5 -36.5t38.5 -88.5zM317 383l312 418q-47 18 -99 18q-102 0 -163.5 -73t-61.5 -216q0 -82 12 -147zM760 530q0 26 -4 62l-301 -406q35 -14 77 -14q106 0 167 87t61 271z" />
    <glyph glyph-name="ugrave" unicode="&#xf9;" horiz-adv-x="1105" 
d="M993 862v-850q-43 -28 -102 -28q-133 0 -133 149v14h-4q-30 -73 -109.5 -120t-183.5 -47q-177 0 -262.5 94.5t-85.5 310.5v598q43 29 102 29q133 0 133 -150v-452q0 -130 43 -182t137 -52q106 0 168 75.5t62 207.5v524q43 29 102 29q133 0 133 -150zM737 1198
q0 -2 -0.5 -6.5t-6 -15t-14.5 -18.5t-28.5 -14.5t-46.5 -6.5q-122 0 -228 94.5t-106 191.5q0 60 29.5 87.5t89.5 27.5q12 0 25.5 -2.5t20.5 -5.5l7 -2q10 -47 92 -156q49 -65 90.5 -108.5t58.5 -54.5z" />
    <glyph glyph-name="uacute" unicode="&#xfa;" horiz-adv-x="1105" 
d="M993 862v-850q-43 -28 -102 -28q-133 0 -133 149v14h-4q-30 -73 -109.5 -120t-183.5 -47q-177 0 -262.5 94.5t-85.5 310.5v598q43 29 102 29q133 0 133 -150v-452q0 -130 43 -182t137 -52q106 0 168 75.5t62 207.5v524q43 29 102 29q133 0 133 -150zM819 1423
q0 -97 -106 -191.5t-228 -94.5q-27 0 -46.5 6.5t-28.5 15.5t-14.5 17.5t-5.5 15.5l-1 6q6 3 18.5 11.5t55.5 53t92 109.5q36 48 59 87t28 54l5 15q26 10 53 10q60 0 89.5 -27.5t29.5 -87.5z" />
    <glyph glyph-name="ucircumflex" unicode="&#xfb;" horiz-adv-x="1105" 
d="M993 862v-850q-43 -28 -102 -28q-133 0 -133 149v14h-4q-30 -73 -109.5 -120t-183.5 -47q-177 0 -262.5 94.5t-85.5 310.5v598q43 29 102 29q133 0 133 -150v-452q0 -130 43 -182t137 -52q106 0 168 75.5t62 207.5v524q43 29 102 29q133 0 133 -150zM721 1485l229 -236
q-1 -5 -3.5 -12.5t-12.5 -26.5t-23.5 -34t-37 -27t-52.5 -12q-74 0 -129 63l-86 100q-36 41 -53 41t-53 -41l-86 -100q-55 -63 -129 -63q-29 0 -52.5 11.5t-37 28t-23 33t-12.5 28.5l-4 11l229 236q82 82 168 82t168 -82z" />
    <glyph glyph-name="udieresis" unicode="&#xfc;" horiz-adv-x="1105" 
d="M993 862v-850q-43 -28 -102 -28q-133 0 -133 149v14h-4q-30 -73 -109.5 -120t-183.5 -47q-177 0 -262.5 94.5t-85.5 310.5v598q43 29 102 29q133 0 133 -150v-452q0 -130 43 -182t137 -52q106 0 168 75.5t62 207.5v524q43 29 102 29q133 0 133 -150zM891 1391v-74
q0 -150 -154 -150q-26 0 -51.5 7.5t-37.5 14.5l-13 7v74q0 149 153 149q26 0 52 -7t38 -14zM502 1391v-74q0 -150 -154 -150q-26 0 -51.5 7.5t-38.5 14.5l-12 7v74q0 149 153 149q26 0 52 -7t39 -14z" />
    <glyph glyph-name="yacute" unicode="&#xfd;" horiz-adv-x="1056" 
d="M1016 887q0 -33 -15 -70l-307 -817q-75 -201 -103 -256q-60 -117 -139 -151q-44 -19 -100 -19q-34 0 -60.5 8t-40.5 19t-23.5 22t-11.5 19l-3 8q3 2 8.5 5.5t23 16.5t35 29t42.5 43.5t47 58.5q31 43 56 90.5t35 74.5l9 26q-126 30 -184 201l-265 788q46 29 105 29
q78 0 120 -34t68 -116l215 -672h4l279 805q31 13 78 13q58 0 92.5 -33.5t34.5 -87.5zM799 1423q0 -97 -106 -191.5t-228 -94.5q-27 0 -46.5 6.5t-28.5 15.5t-14.5 17.5t-5.5 15.5l-1 6q6 3 18.5 11.5t55.5 53t92 109.5q36 48 59 87t28 54l5 15q26 10 53 10q60 0 89.5 -27.5
t29.5 -87.5z" />
    <glyph glyph-name="ydieresis" unicode="&#xff;" horiz-adv-x="1056" 
d="M1016 887q0 -33 -15 -70l-307 -817q-75 -201 -103 -256q-60 -117 -139 -151q-44 -19 -100 -19q-34 0 -60.5 8t-40.5 19t-23.5 22t-11.5 19l-3 8q3 2 8.5 5.5t23 16.5t35 29t42.5 43.5t47 58.5q31 43 56 90.5t35 74.5l9 26q-126 30 -184 201l-265 788q46 29 105 29
q78 0 120 -34t68 -116l215 -672h4l279 805q31 13 78 13q58 0 92.5 -33.5t34.5 -87.5zM870 1391v-74q0 -150 -153 -150q-26 0 -52 7.5t-39 14.5l-12 7v74q0 149 154 149q26 0 51.5 -7t38.5 -14zM481 1391v-74q0 -150 -153 -150q-26 0 -52 7.5t-38 14.5l-13 7v74
q0 149 154 149q26 0 51.5 -7t37.5 -14z" />
    <glyph glyph-name="dotlessi" unicode="&#x131;" horiz-adv-x="495" 
d="M465 113q0 -56 -41.5 -92.5t-120.5 -36.5q-98 0 -144 56t-46 173v770q43 29 102 29q133 0 133 -150v-616q0 -94 76 -94l33 2q8 -14 8 -41z" />
    <glyph glyph-name="OE" unicode="&#x152;" horiz-adv-x="1968" 
d="M1907 127q0 -57 -33 -92t-100 -35h-748v92q-146 -112 -350 -112q-282 0 -443 187t-161 529q0 656 602 656q208 0 352 -84v43h844q16 -27 16 -78q0 -57 -33 -92t-100 -35h-481v-307h577q17 -27 17 -78q0 -57 -33 -92t-100 -35h-461v-389h618q17 -27 17 -78zM1026 694
q0 223 -94 334t-258 111q-157 0 -252.5 -112t-95.5 -333q0 -248 99.5 -381t250.5 -133q149 0 249.5 133.5t100.5 380.5z" />
    <glyph glyph-name="oe" unicode="&#x153;" horiz-adv-x="1648" 
d="M1608 653q0 -101 -21 -132.5t-100 -31.5h-481q1 -165 71.5 -241t210.5 -76q58 0 108 3t70 6l21 3q8 -16 8 -67q0 -71 -65 -104t-199 -33q-228 0 -352 159q-127 -159 -347 -159q-116 0 -207 41.5t-148 116.5t-86.5 174.5t-29.5 219.5q0 244 126 368t343 124
q240 0 357 -123q117 123 319 123q188 0 295 -100.5t107 -270.5zM1014 643h366q7 79 -34.5 132.5t-133.5 53.5q-94 0 -143.5 -49t-54.5 -137zM760 530q0 144 -62 216.5t-168 72.5q-102 0 -163.5 -73t-61.5 -216q0 -184 60 -271t167 -87q106 0 167 87t61 271z" />
    <glyph glyph-name="Scaron" unicode="&#x160;" horiz-adv-x="1099" 
d="M1028 418q0 -438 -493 -438q-218 0 -308 44t-90 134q0 22 2.5 40t4.5 26l3 7q16 -5 45.5 -12t119 -19t177.5 -12q157 0 227 47t70 142q0 66 -21.5 101t-78.5 53.5t-170 25.5q-209 14 -326.5 115t-117.5 289q0 391 510 391q162 0 254 -22t123.5 -58t31.5 -96
q0 -24 -5 -46.5t-10 -33.5l-5 -11q-172 37 -340 37q-170 0 -238.5 -40.5t-68.5 -133.5q0 -91 66.5 -137t211.5 -55q238 -17 332 -95t94 -243zM948 1720l-229 -235q-82 -82 -168 -82t-168 82l-229 235q1 5 3.5 12.5t12.5 27t23.5 34.5t37 27t52.5 12q73 0 129 -64l86 -100
q36 -41 53 -41t53 41l86 100q56 64 129 64q29 0 52.5 -11.5t37 -28.5t23 -33.5t12.5 -27.5z" />
    <glyph glyph-name="scaron" unicode="&#x161;" horiz-adv-x="886" 
d="M821 326q0 -351 -401 -351q-162 0 -233.5 35.5t-71.5 120.5q0 22 2.5 39t4.5 23l3 6q94 -29 250 -29q129 0 172 26.5t43 90.5q0 58 -37.5 80.5t-151.5 29.5q-160 11 -252 92t-92 226q0 155 110 232t308 77q126 0 195.5 -17t96 -50t26.5 -91q0 -24 -5.5 -45.5t-10.5 -30.5
l-5 -10q-101 23 -248 23q-132 0 -178.5 -22.5t-46.5 -78.5q0 -58 41 -84.5t147 -33.5q181 -12 257.5 -71t76.5 -187zM842 1454l-230 -235q-82 -82 -168 -82t-168 82l-229 235q1 5 3.5 12.5t12.5 27t23.5 34.5t37 27t52.5 12q73 0 129 -64l86 -100q36 -41 53 -41q18 0 54 41
l86 100q56 64 129 64q29 0 52.5 -11.5t37 -28.5t23 -33.5t12.5 -27.5z" />
    <glyph glyph-name="Ydieresis" unicode="&#x178;" horiz-adv-x="1220" 
d="M1200 1227q0 -54 -33 -99l-422 -546v-570q-42 -28 -108 -28q-137 0 -137 149v451l-510 706q5 5 15 13.5t44 22t72 13.5q87 0 135.5 -23.5t89.5 -86.5l279 -426h4l389 547q23 2 35 2q67 0 107 -36t40 -89zM973 1657v-74q0 -149 -154 -149q-26 0 -51.5 7t-37.5 14l-13 7v74
q0 150 153 150q26 0 52 -7t38 -15zM584 1657v-74q0 -149 -154 -149q-26 0 -51.5 7t-38.5 14l-12 7v74q0 150 153 150q26 0 52 -7t39 -15z" />
    <glyph glyph-name="Zcaron" unicode="&#x17d;" horiz-adv-x="1163" 
d="M94 1311h1069l-745 -1106h569q67 0 100 -35t33 -92q0 -23 -4 -42.5t-8 -27.5l-4 -8h-1104l745 1106h-534q-67 0 -100 35t-33 92q0 23 4 42.5t8 27.5zM1010 1720l-230 -235q-82 -82 -168 -82t-168 82l-229 235q1 5 3.5 12.5t12.5 27t23.5 34.5t37 27t52.5 12q73 0 129 -64
l86 -100q36 -41 53 -41q18 0 54 41l86 100q56 64 129 64q29 0 52.5 -11.5t37 -28.5t23 -33.5t12.5 -27.5z" />
    <glyph glyph-name="zcaron" unicode="&#x17e;" horiz-adv-x="989" 
d="M94 983h875l-563 -786h397q68 0 100.5 -32t32.5 -89q0 -23 -4 -42t-8 -26l-4 -8h-920l563 786h-352q-68 0 -100.5 32t-32.5 89q0 23 4 42t8 27zM913 1454l-229 -235q-82 -82 -168 -82t-168 82l-229 235q1 5 3.5 12.5t12.5 27t23.5 34.5t37 27t52.5 12q73 0 129 -64
l86 -100q36 -41 53 -41t53 41l86 100q56 64 129 64q29 0 52.5 -11.5t37 -28.5t23 -33.5t13.5 -27.5z" />
    <glyph glyph-name="circumflex" unicode="&#x2c6;" horiz-adv-x="958" 
d="M647 1485l230 -236q-1 -5 -3.5 -12.5t-12.5 -26.5t-23.5 -34t-37 -27t-52.5 -12q-75 0 -130 63l-86 100q-36 41 -53 41t-53 -41l-86 -100q-55 -63 -129 -63q-29 0 -52.5 11.5t-37 28t-23 33t-12.5 28.5l-4 11l229 236q82 82 168 82t168 -82z" />
    <glyph glyph-name="caron" unicode="&#x2c7;" horiz-adv-x="958" 
d="M877 1454l-230 -235q-82 -82 -168 -82t-168 82l-229 235q1 5 3.5 12.5t12.5 27t23.5 34.5t37 27t52.5 12q73 0 129 -64l86 -100q36 -41 53 -41t53 41l86 100q56 64 130 64q29 0 52.5 -11.5t37 -28.5t23 -33.5t13.5 -27.5z" />
    <glyph glyph-name="ring" unicode="&#x2da;" horiz-adv-x="720" 
d="M639 1415q0 -115 -81.5 -196.5t-197.5 -81.5t-197 81.5t-81 196.5q0 116 81.5 197.5t196.5 81.5q116 0 197.5 -82t81.5 -197zM492 1415q0 54 -39 92.5t-93 38.5t-92.5 -38.5t-38.5 -92.5t38.5 -92.5t92.5 -38.5t93 38.5t39 92.5z" />
    <glyph glyph-name="tilde" unicode="&#x2dc;" horiz-adv-x="1013" 
d="M932 1354q0 -207 -225 -207q-63 0 -131 24t-131.5 48t-114.5 24q-60 0 -112.5 -22t-75.5 -44l-23 -22q-37 43 -37 117q0 198 237 198q66 0 137 -25t136 -50t115 -25q43 0 79.5 9t57.5 22t35.5 26t20.5 22l5 9q27 -43 27 -104z" />
    <glyph glyph-name="hungarumlaut" unicode="&#x2dd;" horiz-adv-x="980" 
d="M899 1423q0 -97 -106 -191.5t-228 -94.5q-27 0 -46.5 6.5t-28.5 15.5t-14.5 17.5t-5.5 15.5l-1 6q6 3 18.5 11.5t55.5 53t92 109.5q36 48 59 87t28 54l5 15q26 10 53 10q60 0 89.5 -27.5t29.5 -87.5zM512 1423q0 -97 -106 -191.5t-228 -94.5q-27 0 -46.5 6.5t-28.5 15.5
t-14.5 17.5t-6.5 15.5v6q6 3 18.5 11.5t55.5 53t92 109.5q36 48 59 87t28 54l5 15q26 10 53 10q60 0 89.5 -27.5t29.5 -87.5z" />
    <glyph glyph-name="pi" unicode="&#x3c0;" horiz-adv-x="1198" 
d="M1147 907q0 -57 -32.5 -89t-100.5 -32h-62v-540q0 -94 76 -94l33 2q8 -14 8 -41q0 -56 -41.5 -92.5t-120.5 -36.5q-98 0 -144 56t-46 173v573h-287v-774q-43 -28 -102 -28q-133 0 -133 149v653h-138q-16 25 -16 76q0 57 32.5 89t100.5 32h956q17 -25 17 -76z" />
    <glyph glyph-name="endash" unicode="&#x2013;" horiz-adv-x="1495" 
d="M1362 618q0 -57 -33 -91.5t-100 -34.5h-1079q-17 26 -17 77q0 57 33 92t100 35h1080q16 -27 16 -78z" />
    <glyph glyph-name="emdash" unicode="&#x2014;" horiz-adv-x="2314" 
d="M2181 618q0 -57 -33 -91.5t-100 -34.5h-1898q-17 26 -17 77q0 57 33 92t100 35h1899q16 -27 16 -78z" />
    <glyph glyph-name="quoteleft" unicode="&#x2018;" horiz-adv-x="616" 
d="M580 1382q-4 -1 -11.5 -4t-29 -16.5t-41.5 -33t-45.5 -57t-44.5 -83.5q-22 -54 -31 -106t-7 -78l1 -25q-29 -16 -76 -16q-145 0 -145 163q0 132 99 235t212 103q32 0 56 -8.5t35.5 -20.5t18.5 -24t8 -21z" />
    <glyph glyph-name="quoteright" unicode="&#x2019;" horiz-adv-x="616" 
d="M467 1300q0 -87 -47 -166t-119 -125t-145 -46q-32 0 -56 8.5t-35.5 20.5t-18.5 23.5t-8 20.5l-1 8q4 1 11.5 4t29 17t41.5 33.5t45.5 57t44.5 83.5q22 54 31 106t8 77l-2 26q29 16 76 16q145 0 145 -164z" />
    <glyph glyph-name="quotesinglbase" unicode="&#x201a;" horiz-adv-x="616" 
d="M467 102q0 -132 -99 -235t-212 -103q-32 0 -56 8.5t-35.5 20.5t-18.5 24t-8 21l-1 8q4 1 11.5 4t29 17t41.5 33.5t45.5 57t44.5 83.5q22 54 31 106t8 77l-2 26q29 16 76 16q145 0 145 -164z" />
    <glyph glyph-name="quotedblleft" unicode="&#x201c;" horiz-adv-x="1005" 
d="M969 1382q-4 -1 -11.5 -4t-29 -16.5t-41.5 -33t-45.5 -57t-44.5 -83.5q-22 -54 -31 -106t-8 -78l2 -25q-29 -16 -76 -16q-145 0 -145 163q0 132 99 235t212 103q32 0 56 -8.5t35.5 -20.5t18.5 -24t8 -21zM580 1382q-4 -1 -11.5 -4t-29 -16.5t-41.5 -33t-45.5 -57
t-44.5 -83.5q-22 -54 -31 -106t-7 -78l1 -25q-29 -16 -76 -16q-145 0 -145 163q0 132 99 235t212 103q32 0 56 -8.5t35.5 -20.5t18.5 -24t8 -21z" />
    <glyph glyph-name="quotedblright" unicode="&#x201d;" horiz-adv-x="1005" 
d="M856 1300q0 -87 -47 -166t-119 -125t-145 -46q-32 0 -56 8.5t-35.5 20.5t-18.5 23.5t-8 20.5l-1 8q4 1 11.5 4t29 17t41.5 33.5t45.5 57t44.5 83.5q22 54 31 106t7 77l-1 26q29 16 76 16q145 0 145 -164zM467 1300q0 -87 -47 -166t-119 -125t-145 -46q-32 0 -56 8.5
t-35.5 20.5t-18.5 23.5t-8 20.5l-1 8q4 1 11.5 4t29 17t41.5 33.5t45.5 57t44.5 83.5q22 54 31 106t8 77l-2 26q29 16 76 16q145 0 145 -164z" />
    <glyph glyph-name="quotedblbase" unicode="&#x201e;" horiz-adv-x="1005" 
d="M856 102q0 -132 -99 -235t-212 -103q-32 0 -56 8.5t-35.5 20.5t-18.5 24t-8 21l-1 8q4 1 11.5 4t29 17t41.5 33.5t45.5 57t44.5 83.5q22 54 31 106t7 77l-1 26q29 16 76 16q145 0 145 -164zM467 102q0 -132 -99 -235t-212 -103q-32 0 -56 8.5t-35.5 20.5t-18.5 24t-8 21
l-1 8q4 1 11.5 4t29 17t41.5 33.5t45.5 57t44.5 83.5q22 54 31 106t8 77l-2 26q29 16 76 16q145 0 145 -164z" />
    <glyph glyph-name="dagger" unicode="&#x2020;" horiz-adv-x="1228" 
d="M1085 905q0 -57 -33 -92t-100 -35h-235v-1188q-27 -16 -78 -16q-57 0 -92 33t-35 100v1071h-352q-17 27 -17 78q0 57 33 92t100 35h236v328q27 16 78 16q57 0 92 -33t35 -100v-211h352q16 -27 16 -78z" />
    <glyph glyph-name="daggerdbl" unicode="&#x2021;" horiz-adv-x="1228" 
d="M1085 127q0 -57 -33 -92t-100 -35h-235v-410q-27 -16 -78 -16q-57 0 -92 33t-35 100v293h-352q-17 27 -17 78q0 57 33 92t100 35h236v573h-352q-17 27 -17 78q0 57 33 92t100 35h236v328q27 16 78 16q57 0 92 -33t35 -100v-211h352q16 -27 16 -78q0 -57 -33 -92t-100 -35
h-235v-573h352q16 -27 16 -78z" />
    <glyph glyph-name="bullet" unicode="&#x2022;" horiz-adv-x="538" 
d="M477 852v-172q0 -117 -68 -171t-178 -54q-44 0 -86.5 10.5t-62.5 21.5l-21 11v172q0 117 68 171t178 54q44 0 86.5 -10.5t62.5 -21.5z" />
    <glyph glyph-name="ellipsis" unicode="&#x2026;" horiz-adv-x="1669" 
d="M1526 248v-115q0 -78 -45 -113.5t-119 -35.5q-29 0 -57.5 7t-42.5 14l-13 7v115q0 78 45 113.5t119 35.5q29 0 57.5 -7t41.5 -14zM973 248v-115q0 -78 -45 -113.5t-119 -35.5q-29 0 -57.5 7t-41.5 14l-14 7v115q0 78 45 113.5t119 35.5q29 0 57.5 -7t42.5 -14zM420 248
v-115q0 -78 -45 -113.5t-119 -35.5q-29 0 -57.5 7t-42.5 14l-13 7v115q0 78 45 113.5t119 35.5q29 0 57.5 -7t41.5 -14z" />
    <glyph glyph-name="perthousand" unicode="&#x2030;" horiz-adv-x="2283" 
d="M2099 311q0 -144 -77.5 -237.5t-206.5 -93.5q-138 0 -212.5 92t-74.5 239q0 146 76.5 220.5t207.5 74.5q287 0 287 -295zM1466 311q0 -144 -77.5 -237.5t-206.5 -93.5q-138 0 -212.5 92t-74.5 239q0 146 77 220.5t208 74.5q286 0 286 -295zM1411 1348l-967 -1520
q-47 -70 -106 -70q-40 0 -77 26t-44 64l967 1520q47 70 106 70q40 0 77 -26t44 -64zM756 926q0 -144 -78 -238t-207 -94q-138 0 -212.5 92.5t-74.5 239.5q0 146 77 220.5t208 74.5q287 0 287 -295zM1894 303q0 107 -82 107q-79 0 -79 -107q0 -72 21 -102.5t61 -30.5
t59.5 30.5t19.5 102.5zM1262 303q0 107 -82 107q-80 0 -80 -107q0 -72 21 -102.5t61 -30.5t60 30.5t20 102.5zM551 918q0 106 -82 106q-80 0 -80 -106q0 -134 82 -134q40 0 60 31t20 103z" />
    <glyph glyph-name="guilsinglleft" unicode="&#x2039;" horiz-adv-x="899" 
d="M674 281q0 -29 -11.5 -52.5t-28 -37t-33.5 -23t-29 -12.5l-11 -4l-448 436l448 436q5 -1 12.5 -3.5t27 -12.5t34.5 -23.5t27 -37t12 -52.5q0 -73 -64 -129l-202 -178l202 -178q64 -56 64 -129z" />
    <glyph glyph-name="guilsinglright" unicode="&#x203a;" horiz-adv-x="899" 
d="M338 1024l448 -436l-448 -436q-5 1 -12.5 3.5t-27 12.5t-34.5 23.5t-27 37t-12 52.5q0 73 64 129l203 178l-203 178q-64 56 -64 129q0 29 11.5 52.5t28.5 37t33.5 23t27.5 12.5z" />
    <glyph glyph-name="fraction" unicode="&#x2044;" horiz-adv-x="1386" 
d="M1305 1341q0 -47 -35 -98l-1024 -1376q-13 -2 -25 -2q-62 0 -100.5 36.5t-38.5 88.5q0 47 35 98l1024 1376q12 2 24 2q62 0 101 -36.5t39 -88.5z" />
    <glyph glyph-name="Euro" unicode="&#x20ac;" horiz-adv-x="1488" 
d="M1356 1178q0 -25 -5 -47t-9 -31l-5 -10q-139 32 -342 32q-150 0 -240 -52t-126 -169h512q16 -27 16 -78q0 -57 -33 -92t-100 -35h-422q0 -48 2 -71h537q16 -27 16 -78q0 -57 -33 -92t-100 -35h-377q91 -232 377 -232q92 0 164 7t98 15l25 7q8 -21 8 -72q0 -39 -14.5 -67
t-51.5 -51t-108.5 -35t-177.5 -12q-223 0 -374.5 113.5t-209.5 326.5h-233q-17 27 -17 78q0 57 33 92t100 35h84q-2 23 -2 71h-198q-17 27 -17 78q0 57 33 92t100 35h101q30 157 111.5 259.5t197.5 147t270 44.5q132 0 215.5 -11t125 -35.5t55.5 -53.5t14 -74z" />
    <glyph glyph-name="trademark" unicode="&#x2122;" horiz-adv-x="1742" 
d="M1610 1186v-522q-25 -21 -72 -21q-43 0 -69 23t-25 71l12 398h-2l-139 -465q-29 -27 -82 -27q-88 0 -113 94l-114 398h-2l10 -471q-27 -21 -74 -21q-92 0 -92 94v561q47 29 110 29q79 0 120.5 -34t62.5 -109l88 -314h4l129 433q43 22 96 22q74 0 113 -36t39 -103z
M776 1260q0 -37 -22 -59.5t-66 -22.5h-147v-514q-31 -21 -78 -21q-43 0 -68.5 23t-25.5 71v441h-224q-12 20 -12 51q0 37 22 59.5t66 22.5h543q12 -20 12 -51z" />
    <glyph glyph-name="minus" unicode="&#x2212;" horiz-adv-x="1392" 
d="M1208 618q0 -57 -33 -91.5t-100 -34.5h-874q-17 26 -17 77q0 57 33 92t100 35h875q16 -27 16 -78z" />
    <glyph glyph-name="notequal" unicode="&#x2260;" horiz-adv-x="1597" 
d="M1311 823q0 -57 -33 -92t-100 -35h-875q-16 27 -16 78q0 57 33 92t100 35h393l98 211q45 96 123 96q32 0 58 -9t41 -21.5t25.5 -25t13.5 -21.5l4 -9l-103 -221h221q17 -27 17 -78zM1311 414q0 -57 -33 -92t-100 -35h-394l-98 -211q-45 -96 -123 -96q-32 0 -58 9
t-40.5 21.5t-25 25t-13.5 21.5l-4 9l102 221h-221q-16 27 -16 78q0 57 33 92t100 35h874q17 -27 17 -78z" />
    <glyph glyph-name="NULL" horiz-adv-x="0" 
 />
    </font>
</defs>
</svg>
